<?xml version="1.0" standalone="no"?>
<!DOCTYPE svg PUBLIC "-//W3C//DTD SVG 1.1//EN" "http://www.w3.org/Graphics/SVG/1.1/DTD/svg11.dtd" >
<svg xmlns="http://www.w3.org/2000/svg" xmlns:xlink="http://www.w3.org/1999/xlink" version="1.1">
<metadata></metadata>
<defs>
<font id="nb_international_proitalic" horiz-adv-x="583" >
<font-face units-per-em="2048" ascent="1638" descent="-410" />
<missing-glyph horiz-adv-x="524" />
<glyph unicode="&#xfb01;" horiz-adv-x="1200" d="M121 893l24 133q0 10 13 10h182q8 0 12 11l27 153q43 248 332 242h137q8 0 8 -10l-29 -154q0 -10 -10 -10h-135q-47 0 -77 -28t-38 -75l-20 -118q-4 -10 8 -11h221q8 0 8 -10l-24 -133q0 -10 -12 -10h-222q-10 0 -10 -11l-154 -862q0 -10 -12 -10h-174q-8 0 -8 10 l154 862q0 10 -11 11h-182q-8 0 -8 10zM741 10l180 1016q0 10 13 10h174q8 0 8 -10l-180 -1016q0 -10 -13 -10h-174q-8 0 -8 10zM934 1217l38 215q0 10 13 10h215q8 0 8 -10l-39 -215q0 -10 -12 -11h-215q-8 0 -8 11z" />
<glyph unicode="&#xfb02;" horiz-adv-x="1208" d="M121 893l24 133q0 10 13 10h182q8 0 12 11l27 153q43 248 332 242h137q8 0 8 -10l-29 -154q0 -10 -10 -10h-135q-47 0 -77 -28t-38 -75l-20 -118q-4 -10 8 -11h221q8 0 8 -10l-24 -133q0 -10 -12 -10h-222q-10 0 -10 -11l-154 -862q0 -10 -12 -10h-174q-8 0 -8 10 l154 862q0 10 -11 11h-182q-8 0 -8 10zM752 10l252 1422q0 10 12 10h174q8 0 8 -10l-252 -1422q0 -10 -12 -10h-174q-8 0 -8 10z" />
<glyph horiz-adv-x="51" />
<glyph horiz-adv-x="51" />
<glyph unicode="&#xd;" horiz-adv-x="71" />
<glyph unicode="&#x9;" />
<glyph unicode="&#xa;" />
<glyph />
<glyph />
<glyph />
<glyph />
<glyph />
<glyph horiz-adv-x="71" />
<glyph horiz-adv-x="71" />
<glyph unicode=" "  horiz-adv-x="524" />
<glyph unicode="&#x09;" horiz-adv-x="524" />
<glyph unicode="&#xa0;" horiz-adv-x="524" />
<glyph unicode="!" horiz-adv-x="489" d="M12 10l45 250q0 10 13 10h245q8 0 9 -10l-45 -250q0 -10 -13 -10h-246q-8 0 -8 10zM145 436l86 600l70 396q0 10 12 10h172q8 0 9 -10l-70 -396l-127 -600q-4 -10 -12 -10h-131q-12 0 -9 10z" />
<glyph unicode="&#x22;" horiz-adv-x="780" d="M162 893l18 215l58 324q0 10 12 10h164q8 0 8 -10l-57 -324l-60 -215q0 -10 -10 -10h-123q-10 0 -10 10zM510 893l18 215l58 324q0 10 12 10h164q8 0 8 -10l-57 -324l-60 -215q0 -10 -10 -10h-123q-10 0 -10 10z" />
<glyph unicode="#" horiz-adv-x="1230" d="M63 457l21 121q4 10 12 10h226q8 0 14 10l90 225q6 12 -8 13h-279q-8 0 -8 10l23 121q0 10 12 10h315q10 0 13 8l178 451q2 6 12 6h113q6 0 8 -5t-2 -10l-172 -438q-4 -4 0 -8t8 -4h209q10 0 12 10l178 449q2 6 13 6h112q6 0 8.5 -5t-2.5 -10l-172 -438q-6 -12 9 -12h202 q8 0 9 -10l-23 -121q0 -10 -12 -10h-240q-8 0 -12 -11l-94 -225q-6 -12 8 -12h295q12 0 8 -10l-21 -121q-4 -10 -12 -11h-332q-6 0 -12 -8l-172 -432q-4 -6 -12 -6h-111q-6 0 -8 5t2 9l168 422q6 10 -6 10h-215q-6 0 -13 -10l-172 -430q-4 -6 -12 -6h-110q-6 0 -8.5 5t1.5 9 l166 420q4 12 -8 12h-188q-12 0 -9 11zM469 602q-4 -14 8 -14h213q6 0 12 10l91 225q8 12 -7 13h-211q-8 0 -12 -11z" />
<glyph unicode="$" horiz-adv-x="1290" d="M76 395q0 10 10 11h182q14 0 11 -13q-6 -33 3 -69.5t35.5 -69.5t69.5 -58.5t107 -35.5q12 -2 12 10l84 479q2 6 -4 6q-78 12 -152 36t-129 68t-81.5 114.5t-8.5 177.5q16 90 65.5 161.5t118 124t153.5 83t171 38.5q8 0 12 10l29 164q4 10 10 10h141q12 0 9 -10l-31 -172 q0 -6 6 -8q76 -12 141.5 -44t111.5 -82t67.5 -119.5t9.5 -159.5q-4 -10 -12 -11h-185q-12 0 -8 11q14 78 -28 139t-126 86q-8 2 -12 -8l-74 -426q-4 -10 9 -11q86 -14 163.5 -38.5t132 -71.5t78 -123t2.5 -188q-12 -72 -49 -141.5t-101.5 -128t-157.5 -99.5t-218 -53 q-10 0 -12 -9l-29 -170q-4 -10 -12 -10h-141q-10 0 -7 10l29 168q4 10 -8 11q-111 10 -190.5 47t-128 92t-66 125.5t-2.5 146.5zM420 1051q-10 -51 3 -86t42 -57.5t68.5 -36t82.5 -19.5q8 -2 13 8l71 414q2 4 -1 7t-7 1q-104 -16 -180 -79.5t-92 -151.5zM666 172 q0 -12 8 -10q123 20 199.5 88.5t91.5 155.5q10 55 -2.5 94t-42 65.5t-71.5 41t-91 24.5q-8 2 -13 -6z" />
<glyph unicode="%" horiz-adv-x="1744" d="M216 892q-3 75 13 163q14 86 43 160.5t74 130t108.5 86t149.5 30.5t138.5 -30.5t78 -86t26.5 -130t-13 -160.5q-16 -88 -44 -163t-73 -130t-107.5 -86t-148.5 -31t-138.5 31t-78 86t-28.5 130zM260 16l1118 1422q4 4 11 4h143q16 0 4 -17l-1122 -1421q-4 -4 -11 -4h-139 q-16 0 -4 16zM362 1055q-23 -135 2 -209t119 -74q92 0 144 74t75 209q25 135 -1.5 207.5t-118.5 72.5q-94 0 -144.5 -72.5t-75.5 -207.5zM951 226.5q-3 74.5 14 162.5q14 86 42.5 161t73.5 130t108.5 86t149.5 31t138.5 -31t78 -86t26.5 -130t-13 -161q-16 -88 -44 -162.5 t-73 -130t-107.5 -86t-148.5 -30.5t-138 30.5t-78 86t-29 130zM1098 389q-23 -135 1.5 -209t119.5 -74q92 0 144 74t75 209t-3 208t-118 73q-94 0 -145.5 -73t-73.5 -208z" />
<glyph unicode="&#x26;" horiz-adv-x="1384" d="M53 434q12 76 47 137.5t80 108.5t96.5 83t98.5 60q23 10 8 25l-41 57q-35 47 -55.5 99.5t-5.5 130.5q12 68 49 127t95 103t134 70.5t166 26.5q86 0 151.5 -27.5t108.5 -73.5t60.5 -104.5t5.5 -121.5q-14 -80 -51 -136.5t-88.5 -95.5t-113 -64.5t-122.5 -45.5 q-14 -4 -8 -19l262 -350q4 -6 8 -4t4 4q14 20 21.5 46t11.5 50l33 178q0 10 10 11h174q10 0 10 -11l-33 -178q-4 -23 -13 -53.5t-23.5 -64t-32 -67.5t-37.5 -61q-8 -12 -2 -16l26 -27q25 -18 37.5 -28t46.5 -8q12 0 9 -11l-31 -174q0 -10 -12 -10q-68 0 -118 27.5t-97 85.5 q-2 4 -4.5 4t-10.5 -4q-78 -53 -188.5 -93t-233.5 -40q-129 0 -219 38.5t-142 102t-69.5 145.5t-1.5 168zM252 455q-12 -63 2 -116.5t49 -92.5t89 -60.5t126 -21.5q76 0 143.5 17.5t139.5 66.5q10 10 2 18l-320 432q-4 6 -16 2q-35 -16 -68.5 -37.5t-63.5 -52t-52.5 -69.5 t-30.5 -86zM465 1135q-10 -53 14.5 -104.5t83.5 -117.5q6 -6 17 -2q16 4 28 11q10 4 20.5 7t14.5 5q39 16 76 31.5t66.5 37t51 53t29.5 79.5q14 78 -36 120.5t-134 42.5q-86 0 -151.5 -43t-79.5 -120z" />
<glyph unicode="'" horiz-adv-x="454" d="M162 893l18 215l58 324q0 10 12 10h164q8 0 8 -10l-57 -324l-60 -215q0 -10 -10 -10h-123q-10 0 -10 10z" />
<glyph unicode="(" horiz-adv-x="522" d="M47 268q2 127 25 250q20 123 63 250t98.5 247t122 226.5t133.5 190.5q8 10 17 10h137q14 0 4 -10q-166 -203 -271.5 -434.5t-148.5 -479.5t-19.5 -479.5t118.5 -433.5q6 -10 -9 -11h-137q-10 0 -12 11q-39 84 -67.5 190.5t-42 226t-11.5 246.5z" />
<glyph unicode=")" horiz-adv-x="522" d="M-86 -395q164 203 270.5 434t149.5 479t18.5 479.5t-119.5 434.5q-4 10 9 10h137q10 0 12 -10q39 -84 67.5 -190.5t42 -226.5t11.5 -247t-23 -250q-23 -123 -65.5 -250t-98 -246.5t-122 -226t-133.5 -190.5q-8 -10 -17 -11h-135q-10 0 -4 11z" />
<glyph unicode="*" horiz-adv-x="1009" d="M242 1155l57 117q4 10 14 6l95 -31l98 -49q16 -8 16 8l10 121l19 105q0 10 10 10h123q10 0 10 -10l-18 -105l-37 -121q-4 -14 3 -12t11 4l119 49l102 31q10 4 15 -6l16 -117q0 -10 -8 -12l-106 -33l-138 -29q-10 -4 -4 -12l70 -90l45 -88q6 -6 -4 -14l-111 -72 q-8 -4 -16 4l-45 82l-37 94q-4 16 -16 0l-72 -96l-74 -82q-12 -8 -18 -4l-84 71q-10 6 0 15l75 88l101 92q8 8 -2 12l-121 29l-94 33q-10 4 -4 12zM518 1192l4 -2v2h-4zM635 1190l4 2h-4v-2z" />
<glyph unicode="+" horiz-adv-x="1296" d="M139 436l29 164q0 10 12 10h391q8 0 13 11l71 405q0 10 11 10h172q10 0 10 -10l-72 -405q-4 -10 8 -11h414q8 0 8 -10l-28 -164q-4 -10 -13 -10h-413q-8 0 -13 -10l-71 -406q0 -10 -13 -10h-172q-8 0 -8 10l72 406q4 10 -8 10h-392q-12 0 -8 10z" />
<glyph unicode="," horiz-adv-x="555" d="M63 -242l21 113q4 10 12 10q31 0 70 28t49 81q4 10 -8 10h-90q-8 0 -8 10l45 250q0 10 10 10h246q10 0 10 -10l-45 -248q-20 -117 -104.5 -190.5t-198.5 -73.5q-8 0 -9 10z" />
<glyph unicode="-" horiz-adv-x="1204" d="M276 436l29 164q0 10 12 10h641q8 0 9 -10l-29 -164q-4 -10 -12 -10h-641q-12 0 -9 10z" />
<glyph unicode="." horiz-adv-x="555" d="M98 10l43 250q4 10 13 10h245q12 0 9 -10l-43 -250q-4 -10 -13 -10h-246q-12 0 -8 10z" />
<glyph unicode="/" horiz-adv-x="1075" d="M123 5q-2 5 2 9l727 1422q2 6 12 6h154q6 0 8 -5t-2 -10l-729 -1421q-4 -6 -12 -6h-152q-6 0 -8 5z" />
<glyph unicode="0" horiz-adv-x="1320" d="M135 427q-4 136 25 294q27 158 78 294t133 235.5t196.5 155.5t270.5 56t251 -56t141 -155.5t49 -235.5t-24 -294q-29 -158 -80 -294t-131.5 -236.5t-195.5 -157t-270 -56.5q-156 0 -251.5 56.5t-141.5 157t-50 236.5zM342 480.5q0 -105.5 27.5 -179.5t86 -111.5 t152.5 -37.5q186 0 291 149.5t152 419.5q25 135 24.5 241.5t-29 178t-87 109.5t-152.5 38q-188 0 -290.5 -147.5t-149.5 -419.5q-25 -135 -25 -240.5z" />
<glyph unicode="1" horiz-adv-x="815" d="M147 1047l25 143q0 10 12 10h254q51 0 92 34t52 85l20 113q0 10 12 10h174q8 0 9 -10l-252 -1422q0 -10 -13 -10h-174q-8 0 -8 10l170 965q6 31 -11 46t-40 15h-313q-12 0 -9 11z" />
<glyph unicode="2" horiz-adv-x="1163" d="M8 10l25 144q2 4 5 13t9 13l666 555q20 16 55 46t70.5 69t64.5 85t37 93q6 39 -2 85t-33.5 85t-73 64.5t-118.5 25.5q-59 0 -110.5 -20.5t-91.5 -54t-66.5 -76.5t-34.5 -90q0 -10 -13 -11h-174q-8 0 -8 11q16 92 63.5 168.5t118 131t159.5 85t187 30.5q111 0 192 -34.5 t130 -93t66.5 -138.5t3.5 -168q-14 -78 -51 -143.5t-83.5 -118.5t-92.5 -93t-77 -67l-524 -416q-4 -4 -4 -10t10 -6h660q12 0 8 -10l-27 -154q-4 -10 -12 -10h-926q-12 0 -8 10z" />
<glyph unicode="3" horiz-adv-x="1187" d="M82 389q0 10 12 10h174q8 0 8 -10q-8 -41 1.5 -83t37 -75.5t73.5 -55t114 -21.5q63 0 120.5 18t102.5 50t74.5 75t38.5 92q20 121 -51.5 193.5t-196.5 72.5h-72q-12 0 -8 11l27 153q4 10 12 10h72q57 0 108 17.5t91 47.5t66.5 72t35.5 91q8 45 -3.5 87t-40 73.5t-73.5 51 t-105 19.5q-55 0 -106 -21.5t-91 -55t-66.5 -76.5t-33.5 -88q-4 -10 -12 -11h-174q-12 0 -8 11q14 90 61 165.5t117 131t158 87t186 31.5q102 0 181 -30.5t129.5 -85t69.5 -129t5 -160.5q-12 -72 -47 -126t-75 -91t-76.5 -56.5t-55.5 -25.5q-10 -2 -12 -10.5t8 -10.5 q25 -8 60.5 -33.5t65.5 -68.5t46.5 -104.5t1.5 -141.5q-16 -90 -63 -164.5t-119 -129t-168 -85t-211 -30.5t-194.5 32.5t-128 89t-64.5 131t-2 156.5z" />
<glyph unicode="4" horiz-adv-x="1294" d="M78 340l24 143q4 16 6.5 21.5t6.5 9.5l841 918q6 8 12.5 9t10.5 1h172q8 0 8 -10l-162 -918q-4 -10 9 -10h227q8 0 8 -10l-27 -154q-4 -10 -12 -10h-227q-8 0 -12 -11l-56 -309q0 -10 -12 -10h-174q-8 0 -8 10l55 309q4 10 -8 11h-674q-12 0 -8 10zM341 509q3 -5 9 -5 h441q8 0 12 10l106 602q0 8 -8 8t-12 -6l-547 -600q-4 -4 -1 -9z" />
<glyph unicode="5" horiz-adv-x="1226" d="M123 389q4 10 12 10h189q12 0 8 -10q-4 -27 3 -66.5t33.5 -77.5t77 -64.5t132.5 -26.5q68 0 127 23.5t108 67.5t83 107.5t48 143.5q12 72 0 133t-45 105t-84 68.5t-119 24.5q-109 0 -181.5 -33.5t-131.5 -107.5q-10 -10 -25 -10h-159q-12 0 -9 10l222 741q4 14 16 15h768 q12 0 8 -10l-26 -154q-4 -10 -13 -10h-602q-8 0 -12 -11q-10 -33 -27.5 -89t-34.5 -111q-20 -66 -43 -137q-4 -10 1.5 -11.5t15.5 4.5q12 8 35.5 23.5t58.5 30t78 24.5t92 10q113 0 198 -36.5t139 -103t73.5 -160t1.5 -205.5q-23 -121 -73 -216.5t-126 -162t-175 -102 t-218 -35.5q-141 0 -229.5 45t-134.5 109.5t-57 135t-3 119.5z" />
<glyph unicode="6" horiz-adv-x="1245" d="M117.5 284.5q-17.5 94.5 1.5 204.5q16 84 52 160t79 137l455 646q8 10 16 10h180q4 0 8 -2t0 -8l-305 -447q-4 -6 0 -12t12 -2q4 4 41 13t84 9q104 0 186.5 -35.5t135.5 -102.5t73.5 -160t0.5 -206q-18 -111 -69.5 -205t-129.5 -162.5t-180.5 -106.5t-220.5 -38 q-121 0 -208 38t-140.5 106.5t-71 163zM324 489q-27 -154 31.5 -245.5t211.5 -91.5q156 0 247 91.5t118 245.5q29 154 -30.5 246t-215.5 92q-154 0 -244 -92t-118 -246z" />
<glyph unicode="7" horiz-adv-x="1077" d="M207 1278l29 154q0 10 12 10h911q8 0 8 -10l-24 -138q-4 -16 -6 -22t-7 -15l-688 -1247q-4 -10 -14 -10h-188q-10 0 -7 10l705 1247q4 10 -6 11h-715q-10 0 -10 10z" />
<glyph unicode="8" horiz-adv-x="1251" d="M123 389q14 84 52 145.5t83 103.5t89 66.5t73 32.5q10 2 12 10.5t-8 10.5q-16 6 -47 25.5t-58.5 56.5t-43 91t-3.5 126q14 86 61.5 160.5t117 129t158.5 85t192 30.5q102 0 181 -30.5t129 -85t69.5 -129t5.5 -160.5q-12 -72 -47 -126t-75 -91t-77 -56.5t-55 -25.5 q-10 -2 -12 -10.5t8 -10.5q25 -8 60.5 -32.5t65 -66.5t46 -103.5t2.5 -145.5q-16 -90 -63.5 -164.5t-119 -129t-167.5 -85t-211 -30.5t-201 30.5t-139.5 85t-74 129t-3.5 164.5zM317 389q-16 -100 55.5 -167.5t198.5 -67.5q63 0 121 18t103 50t74.5 75t37.5 92 q20 121 -51.5 193.5t-196.5 72.5q-61 0 -118.5 -18.5t-103.5 -53t-77.5 -83.5t-42.5 -111zM467 1057q-16 -98 45 -163t178 -65q57 0 108.5 17.5t91.5 47.5t66.5 72t34.5 91q8 45 -3 87t-39.5 73.5t-74 51t-104.5 19.5t-111.5 -19.5t-92.5 -51t-65.5 -73.5t-33.5 -87z" />
<glyph unicode="9" horiz-adv-x="1245" d="M198.5 743.5q-20.5 92.5 0.5 206.5q18 111 69 205t129 162.5t179.5 106.5t222.5 38q119 0 207 -38t141 -106.5t70.5 -162.5t-0.5 -205q-16 -84 -52.5 -159.5t-79.5 -137.5l-454 -645q-8 -10 -17 -10h-180q-4 0 -8 2t0 8l305 447q4 6 0 12t-12 2q-4 -4 -40 -13.5t-83 -9.5 q-104 0 -187 36t-136.5 102.5t-74 159zM403 950q-29 -154 31 -246t215 -92q154 0 244 92.5t119 245.5q27 154 -31.5 246t-212.5 92q-156 0 -247 -92t-118 -246z" />
<glyph unicode=":" horiz-adv-x="555" d="M63 10l46 250q0 10 10 10h246q10 0 10 -10l-45 -250q0 -10 -13 -10h-245q-8 0 -9 10zM199 776l45 250q0 10 10 10h246q10 0 10 -10l-45 -250q-4 -10 -12 -10h-246q-12 0 -8 10z" />
<glyph unicode=";" horiz-adv-x="555" d="M31 -242l20 113q0 10 10 10q31 0 71 28t50 81q0 10 -8 10h-90q-12 0 -8 10l43 250q4 10 12 10h246q12 0 8 -10l-43 -248q-23 -117 -105.5 -190.5t-197.5 -73.5q-12 0 -8 10zM209 776l45 250q4 10 12 10h246q12 0 8 -10l-45 -250q0 -10 -10 -10h-246q-10 0 -10 10z" />
<glyph unicode="&#x3c;" horiz-adv-x="1087" d="M57 399l19 115l20 115q4 8 8 10l988 395q16 6 12 -10l-27 -160q-2 -6 -8 -8l-821 -336q-4 -2 -5 -6t3 -6l704 -328q4 -2 4 -8l-28 -160q0 -6 -5.5 -10t-11.5 0l-848 387q-8 4 -4 10z" />
<glyph unicode="=" horiz-adv-x="1196" d="M100 217l29 164q0 10 12 10h918q8 0 8 -10l-29 -164q-4 -10 -12 -10h-917q-12 0 -9 10zM178 662l29 161q4 10 12 11h918q12 0 8 -11l-29 -161q0 -10 -12 -11h-918q-8 0 -8 11z" />
<glyph unicode="&#x3e;" horiz-adv-x="1087" d="M-10 12l26 160q0 4 9 8l819 328q4 2 5 6t-3 6l-703 336q-6 4 -4 8l27 160q2 6 7 10t9 0l848 -395q8 -4 4 -10l-20 -115l-19 -115q-4 -8 -8 -10l-987 -387q-10 -6 -10 10z" />
<glyph unicode="?" horiz-adv-x="1087" d="M170 1047l4 20q14 86 60.5 158.5t116 125t157.5 82t188 29.5q111 0 194 -32.5t135 -90t71.5 -134.5t5.5 -163q-16 -88 -53 -149.5t-90.5 -106.5t-120 -79.5t-140.5 -69.5q-23 -10 -31 -20.5t-16 -32.5l-24 -146q-4 -10 -13 -10h-174q-12 0 -8 10l29 162q23 135 182 197 q80 31 129 60.5t78 59t41 60.5t18 65q8 43 -2 87.5t-39.5 80t-80 57t-121.5 21.5q-61 0 -112.5 -18.5t-90.5 -49t-62.5 -70.5t-31.5 -83l-4 -20q0 -10 -13 -11h-174q-8 0 -8 11zM319 10l43 250q4 10 13 10h246q12 0 8 -10l-43 -250q-4 -10 -13 -10h-245q-12 0 -9 10z" />
<glyph unicode="@" horiz-adv-x="2060" d="M69.5 173q-10.5 185 71.5 409q76 217 205 381.5t292 275.5t348 167t374 56q170 0 314.5 -61.5t231.5 -179t104.5 -291.5t-64.5 -400q-55 -154 -131 -259t-156 -169.5t-158 -93t-137 -28.5q-43 0 -71.5 18t-44 44t-21.5 52.5t-6 42.5q0 4 -5.5 6t-11.5 -4 q-78 -82 -181 -120.5t-196 -38.5q-121 0 -198.5 39.5t-115.5 110.5t-36 170t43 218q47 135 120 236.5t164 168t196.5 100.5t218.5 34q51 0 91 -13.5t67.5 -32t43 -38t21.5 -31.5q4 -8 12 -6t12 10l43 80q4 10 17 10h151q12 0 9 -10l-297 -778q-6 -14 -8.5 -31.5t3 -33 t19.5 -26t41 -10.5q49 0 101 30t103.5 84t96.5 130t80 170q70 193 56.5 338t-90.5 243.5t-207 148.5t-296 50q-199 0 -364.5 -69.5t-296.5 -183t-223.5 -257t-143.5 -288.5q-57 -160 -53 -311.5t70.5 -269.5t196.5 -189.5t327 -71.5q72 0 155.5 14.5t168.5 39t168 56 t153 66.5q12 8 8 -6v2l-49 -129q-4 -10 -12 -16q-47 -29 -119 -56.5t-156 -49t-176 -35t-182 -13.5q-203 0 -355.5 73.5t-238.5 207t-96.5 318.5zM688.5 249.5q36.5 -102.5 185.5 -102.5q150 0 259.5 102.5t171.5 268.5q68 186 31.5 278.5t-185.5 92.5q-74 0 -140.5 -26.5 t-123 -76t-100 -118t-74.5 -150.5q-61 -166 -24.5 -268.5z" />
<glyph unicode="A" horiz-adv-x="1437" d="M16 10l736 1422q4 10 14 10h252q6 0 10 -10l225 -1422q2 -4 -3 -7t-9 -3h-192q-4 0 -9 10l-41 293q-2 10 -14 10h-594q-8 0 -12 -10l-150 -293q-4 -10 -12 -10h-190q-12 0 -11 10zM469 487q-4 -10 8 -10h486q12 0 8 10l-107 750q-2 10 -9 10t-11 -10z" />
<glyph unicode="B" horiz-adv-x="1361" d="M76 10l252 1422q0 10 12 10h682q84 0 147.5 -33t103.5 -88t53 -130q6 -36 7 -74q0 -41 -8 -85q-8 -51 -29.5 -94t-51.5 -78t-62.5 -59.5t-65.5 -36.5q-8 -4 -9 -10t5 -11q33 -14 62.5 -47.5t49 -80t26.5 -99.5q3 -25 3 -49q0 -28 -4 -57q-16 -92 -61 -167t-110.5 -129.5 t-147.5 -84t-174 -29.5h-672q-8 0 -8 10zM301 184q0 -10 8 -10h449q55 0 105 19.5t90 52.5t67 74.5t35 89.5q3 18 3 37q0 26 -6 52q-12 44 -38.5 78.5t-66.5 56t-89 21.5h-463q-8 0 -12 -10zM418 840q-4 -10 8 -11h448q39 2 82 17.5t79 41t61.5 62.5t33.5 82q5 26 5 51 q0 19 -3 37q-6 43 -27.5 77t-59 53.5t-93.5 19.5h-448q-12 0 -12 -10z" />
<glyph unicode="C" horiz-adv-x="1439" d="M144 421q-4 43 -4 89q0 99 20 211q29 162 96.5 298t166.5 234.5t229 153.5t284 55q168 0 271.5 -56t158.5 -132q54 -76 70 -153q11 -56 12 -93q0 -15 -2 -27q-2 -10 -12 -10h-181q-12 0 -12 10q-6 33 -21.5 82.5t-51 94.5t-99 77.5t-164.5 32.5q-217 0 -355 -149.5 t-185 -417.5q-16 -93 -17 -172q0 -147 57 -245q87 -150 302 -150q92 0 163.5 29.5t126 72.5t90.5 93t54 91q4 10 16 11h180q10 0 9 -11q-8 -51 -54.5 -129t-129.5 -151.5t-204.5 -126.5t-281.5 -53q-170 0 -282.5 54t-174 152.5t-75.5 234.5z" />
<glyph unicode="D" horiz-adv-x="1449" d="M68 10l251 1422q0 10 13 10h528q160 0 270.5 -55.5t173.5 -152.5q62 -98 78 -232q6 -49 6 -101q0 -92 -18 -194q-29 -164 -91 -294t-158.5 -222.5t-225.5 -141.5t-291 -49h-528q-8 0 -8 10zM293 184q0 -10 8 -10h334q207 0 345 135t185 398q15 86 15 160q0 37 -4 72 q-12 103 -54.5 176t-116 113t-176.5 40h-333q-12 0 -13 -11z" />
<glyph unicode="E" horiz-adv-x="1294" d="M66 10l251 1422q0 10 13 10h985q8 0 8 -10l-29 -154q0 -10 -10 -10h-790q-12 0 -13 -11l-73 -417q-4 -10 8 -11h706q12 0 8 -10l-26 -153q-4 -10 -12 -11h-707q-8 0 -12 -10l-82 -461q0 -10 8 -10h791q10 0 10 -10l-29 -154q0 -10 -12 -10h-985q-8 0 -8 10z" />
<glyph unicode="F" horiz-adv-x="1150" d="M78 10l252 1422q0 10 12 10h911q8 0 9 -10l-29 -154q0 -10 -10 -10h-717q-12 0 -12 -11l-74 -417q-4 -10 8 -11h633q12 0 8 -10l-27 -153q-4 -10 -12 -11h-633q-8 0 -12 -10l-113 -635q0 -10 -12 -10h-174q-8 0 -8 10z" />
<glyph unicode="G" horiz-adv-x="1521" d="M116 421q-5 43 -5 89q0 99 20 211q29 162 96.5 298t167 234.5t229.5 153.5t283 55q137 0 231.5 -35.5t155 -94t90 -133.5t37.5 -152q0 -10 -12 -11h-190q-10 0 -11 11q-27 121 -114.5 181t-216.5 60q-217 0 -355.5 -149.5t-185.5 -417.5q-16 -93 -16 -172q0 -147 56 -245 q87 -150 302 -150q217 0 349 111.5t175 359.5q4 10 -8 10h-422q-12 0 -8 10l27 154q4 10 12 10h616q12 0 8 -10l-139 -789q0 -10 -12 -10h-150q-10 0 -10 12l4 144q2 6 -5 8t-13 -4q-29 -33 -77 -65t-108.5 -57.5t-130 -41.5t-139.5 -16q-170 0 -282.5 54t-174 152.5 t-74.5 234.5z" />
<glyph unicode="H" horiz-adv-x="1388" d="M66 10l251 1422q0 10 13 10h174q8 0 8 -10l-104 -592q-4 -10 8 -11h649q8 0 12 11l105 592q0 10 12 10h174q8 0 8 -10l-252 -1422q0 -10 -12 -10h-174q-8 0 -8 10l112 635q4 10 -8 10h-649q-8 0 -12 -8l-113 -637q0 -10 -12 -10h-174q-8 0 -8 10z" />
<glyph unicode="I" horiz-adv-x="524" d="M66 10l251 1422q0 10 13 10h174q8 0 8 -10l-252 -1422q0 -10 -12 -10h-174q-8 0 -8 10z" />
<glyph unicode="J" horiz-adv-x="987" d="M5 240q-2 25 -2 52q0 55 9 114l17 98q4 10 12 10h174q12 0 8 -10l-16 -98q-8 -43 -10 -88v-11q0 -39 13 -71q15 -35 53 -58.5t112 -23.5q72 0 119 23.5t74.5 59t42 80.5t22.5 89l180 1026q4 10 12 10h174q12 0 9 -10l-181 -1026q-16 -88 -47.5 -166t-88 -135.5 t-141.5 -91t-208 -33.5q-113 0 -184.5 33.5t-108.5 91t-44 135.5z" />
<glyph unicode="K" horiz-adv-x="1316" d="M76 10l252 1422q0 10 12 10h174q8 0 8 -10l-108 -613q-4 -12 8 -4l737 617q10 10 19 10h233q14 0 4 -10l-647 -547q-8 -6 -4 -17l412 -858q4 -4 -0.5 -7t-8.5 -3h-202q-4 0 -15 10l-346 723q-4 8 -12 0l-217 -182q-8 -6 -13 -16l-92 -525q0 -10 -12 -10h-174q-8 0 -8 10z " />
<glyph unicode="L" horiz-adv-x="1148" d="M78 10l252 1422q0 10 12 10h174q8 0 8 -10l-221 -1248q0 -10 8 -10h717q10 0 10 -10l-28 -154q0 -10 -13 -10h-911q-8 0 -8 10z" />
<glyph unicode="M" horiz-adv-x="1792" d="M66 10l251 1422q0 10 13 10h332q6 0 12 -10l147 -1229q2 -8 9.5 -8t11.5 8l581 1229q4 10 17 10h332q8 0 8 -10l-252 -1422q0 -10 -12 -10h-175q-8 0 -8 10l217 1227q2 10 -7 10t-13 -8l-578 -1229q-4 -10 -18 -10h-279q-10 0 -14 10l-143 1229q-2 10 -10.5 9t-10.5 -11 l-217 -1227q0 -10 -12 -10h-174q-8 0 -8 10z" />
<glyph unicode="N" horiz-adv-x="1492" d="M66 10l251 1422q0 10 13 10h303q6 0 12 -10l404 -1229q4 -10 11 -9t9 11l217 1227q0 10 12 10h175q8 0 8 -10l-252 -1422q0 -10 -12 -10h-302q-8 0 -14 10l-403 1231q-2 6 -10.5 6t-10.5 -10l-217 -1227q0 -10 -12 -10h-174q-8 0 -8 10z" />
<glyph unicode="O" horiz-adv-x="1499" d="M118 421q-6 49 -5 102q0 93 18 198q29 162 93.5 298t162.5 234.5t228 153.5t292 55t273.5 -55t175.5 -153q64 -99 80 -235q6 -49 5 -102q0 -93 -18 -196q-29 -164 -93 -300t-162.5 -234.5t-228.5 -152.5t-292 -54t-273.5 54t-175.5 152.5t-80 234.5zM336 721 q-16 -93 -16 -172q0 -147 56 -245q87 -150 302 -150t355.5 150.5t187.5 416.5q15 91 15 168q0 149 -57 249q-87 150 -302 150q-217 0 -355.5 -149.5t-185.5 -417.5z" />
<glyph unicode="P" horiz-adv-x="1273" d="M86 10l252 1422q0 10 12 10h598q84 0 153.5 -34t116.5 -94q48 -58 68 -138q10 -42 10 -89q0 -40 -8 -83q-16 -92 -63 -170t-115 -136.5t-149.5 -91.5t-165.5 -33h-404q-12 0 -12 -10l-98 -553q0 -10 -13 -10h-174q-8 0 -8 10zM414 758q-4 -10 8 -10h379q49 0 97 20t88 55 t68.5 81t39.5 100q3 22 3 43q-1 30 -7 58q-12 48 -39 84t-68 57.5t-90 21.5h-379q-12 0 -12 -11z" />
<glyph unicode="Q" horiz-adv-x="1538" d="M150 421q-6 49 -6 102q0 93 18 198q29 162 93 298t162.5 234.5t229.5 153.5t293 55t272.5 -55t174 -153.5t79.5 -234.5q6 -49 6 -102q0 -93 -18 -196q-31 -174 -101.5 -315.5t-178.5 -241.5q-8 -8 -3 -14l185 -222q4 -10 -6 -10h-193q-10 0 -14 10l-109 129q-4 4 -12 0 q-154 -77 -339 -77h-5q-162 0 -273.5 54t-175 152.5t-79.5 234.5zM367 721q-16 -93 -16 -172q0 -147 56 -245q87 -150 302 -150q111 0 196 39q10 4 4 14l-178 211q-4 4 -1 7t7 3h197q4 0 7 -3l7 -7l101 -119q4 -6 10 0q76 78 122 182.5t70 239.5q15 91 15 169q0 149 -56 248 q-86 150 -301 150q-217 0 -356 -149.5t-186 -417.5z" />
<glyph unicode="R" horiz-adv-x="1288" d="M86 10l252 1422q0 10 12 10h598q84 0 153.5 -34t116.5 -94q48 -58 68 -138q10 -42 10 -89q0 -40 -8 -83q-12 -68 -40.5 -127.5t-69.5 -110.5t-93.5 -90t-109.5 -64q-8 -4 -6 -14l157 -588q2 -10 -12 -10h-170q-14 0 -18 10l-148 553q-4 10 -12 10h-375q-12 0 -12 -10 l-98 -553q0 -10 -13 -10h-174q-8 0 -8 10zM414 758q-4 -10 8 -10h387q47 2 94 22.5t86 55t66.5 79.5t38.5 99q3 22 3 43q-1 30 -7 58q-12 48 -39 84t-68 57.5t-90 21.5h-379q-12 0 -12 -11z" />
<glyph unicode="S" horiz-adv-x="1290" d="M74 395q4 10 12 11h182q14 0 11 -13q-2 -12 -2 -25q0 -27 9 -56q13 -42 50 -77.5t97.5 -58t146.5 -22.5q82 0 148.5 20.5t116.5 55t80.5 79.5t39.5 97q4 26 4 48q-1 38 -13 64q-20 42 -63 69t-102.5 39.5t-124.5 18.5q-84 8 -173.5 28.5t-158 64.5t-104.5 119 q-23 48 -22 114q0 37 7 80q16 98 72.5 175t136.5 129t174 79.5t188 27.5q98 0 184.5 -25.5t149 -76.5t92.5 -130q21 -54 22 -120q0 -30 -5 -63q-4 -10 -12 -11h-185q-12 1 -8 11q3 17 3 34q-1 32 -11 61q-16 44 -50 76.5t-88.5 51t-121.5 18.5q-61 0 -117.5 -17.5 t-101.5 -49t-77 -75.5t-40 -95q-4 -21 -4 -40q0 -35 16 -61q24 -38 65.5 -61t95.5 -33t107 -16q98 -12 192.5 -34t163 -68t102.5 -126q20 -48 20 -112q0 -43 -9 -94q-12 -78 -55 -154t-118.5 -136.5t-186.5 -98t-260 -37.5q-133 0 -229.5 33.5t-156 91t-81.5 131.5 q-14 45 -14 93q0 32 6 66z" />
<glyph unicode="T" horiz-adv-x="1150" d="M186 1278l29 154q0 10 12 10h1006q8 0 8 -10l-29 -154q0 -10 -10 -10h-395q-12 0 -12 -11l-222 -1247q0 -10 -12 -10h-174q-8 0 -8 10l221 1250q-4 8 -8 8h-395q-10 0 -11 10z" />
<glyph unicode="U" horiz-adv-x="1312" d="M131 489l166 943q4 10 12 10h174q12 0 9 -10l-166 -943q-6 -30 -6 -60q0 -34 8 -66q14 -60 50 -107t89 -74.5t119 -27.5t128 27.5t113.5 74.5t86 107.5t47.5 125.5l165 943q4 10 13 10h174q12 0 8 -10l-166 -943q-18 -106 -74.5 -199t-137.5 -162t-181 -108.5t-207 -39.5 q-106 0 -193.5 39.5t-144.5 108.5t-81 162q-13 53 -13 109q0 44 8 90z" />
<glyph unicode="V" horiz-adv-x="1443" d="M268 1432q-2 6 4.5 8t10.5 2h190q4 0 8 -10l185 -1229q2 -8 9 -8t11 8l612 1229q4 10 13 10h192q12 0 8 -10l-729 -1422q-4 -10 -12 -10h-260q-6 0 -10 10z" />
<glyph unicode="W" horiz-adv-x="1982" d="M268 1432q-2 6 4.5 8t10.5 2h186q4 0 8 -10l8 -1227q0 -10 8.5 -10t12.5 10l471 1227q4 10 12 10h344q4 0 8 -10l37 -1227q0 -10 8.5 -10t12.5 10l442 1227q4 10 12 10h187q12 0 10 -10l-534 -1422q-4 -10 -15 -10h-311q-4 0 -8 10l-47 1225q0 8 -8.5 8t-12.5 -8 l-481 -1225q-4 -10 -12 -10h-312q-6 0 -10 10z" />
<glyph unicode="X" horiz-adv-x="1363" d="M6 10l596 703q6 10 2 16l-346 703q-6 10 8 10h207q8 0 14 -10l254 -541q6 -14 21 0l448 541q8 10 23 10h203q10 0 4 -10l-596 -703q-6 -10 -2 -16l346 -703q6 -10 -8 -10h-209q-6 0 -13 10l-256 541q-6 14 -20 0q-51 -63 -126 -154.5t-146 -177.5q-82 -100 -174 -209 q-6 -10 -19 -10h-207q-10 0 -4 10z" />
<glyph unicode="Y" horiz-adv-x="1390" d="M274 1432q-6 10 9 10h206q8 0 15 -10l246 -584q10 -14 20 0l457 584q8 10 22 10h203q10 0 4 -10l-627 -791q-10 -12 -10 -20l-108 -611q0 -10 -13 -10h-174q-8 0 -8 10l109 611q0 4 -7 20z" />
<glyph unicode="Z" horiz-adv-x="1198" d="M-10 10l24 144q2 16 4 19t7 7l970 1075q8 12 -2 13h-772q-10 0 -10 10l29 154q0 10 12 10h1003q8 0 9 -10l-27 -144q-2 -16 -3 -19t-5 -7l-975 -1078q-6 -10 2 -10h774q10 0 10 -10l-28 -154q0 -10 -13 -10h-1001q-8 0 -8 10z" />
<glyph unicode="[" horiz-adv-x="694" d="M-6 -395l319 1827q4 10 13 10h467q12 0 8 -10l-19 -105q0 -8 -10 -8h-323q-12 0 -13 -10l-278 -1581q-4 -10 8 -11h323q10 0 9 -8l-19 -104q0 -10 -12 -11h-467q-6 0 -6 11z" />
<glyph unicode="\" horiz-adv-x="1075" d="M373 1427q0 14 14 15h154q4 0 8 -6l227 -1422q0 -14 -14 -14h-152q-6 0 -8 6z" />
<glyph unicode="]" horiz-adv-x="694" d="M-6 -395l16 104q2 8 13 8h323q8 0 12 11l279 1581q0 10 -8 10h-324q-10 0 -10 8l18 105q4 10 13 10h467q12 0 8 -10l-322 -1827q0 -10 -12 -11h-467q-6 0 -6 11z" />
<glyph unicode="^" horiz-adv-x="1087" d="M121 752l426 680q4 10 16 10h225q8 0 13 -10l184 -680q4 -6 -1 -10.5t-11 -4.5h-185q-8 0 -8 6l-135 471q-2 8 -8 8.5t-12 -8.5l-299 -471q-6 -6 -13 -6h-184q-16 0 -8 15z" />
<glyph unicode="_" horiz-adv-x="1335" d="M117 10l26 154q0 10 13 10h1018q8 0 8 -10l-27 -154q-4 -10 -12 -10h-1018q-12 0 -8 10z" />
<glyph unicode="`" horiz-adv-x="536" d="M227 1427q-2 6 3.5 10.5t11.5 4.5h178q16 0 16 -15l53 -206q2 -6 -3 -10.5t-11 -4.5h-117q-14 0 -18 15z" />
<glyph unicode="a" horiz-adv-x="1183" d="M82 307q12 68 50 124t100.5 98t151.5 65.5t202 23.5h229q51 0 63.5 17.5t16.5 46.5q5 27 5 56v10q-1 36 -22.5 66t-70.5 49.5t-141 19.5q-133 0 -201 -54.5t-82 -132.5q0 -10 -12 -10h-176q-8 0 -9 10q16 90 65.5 158t119 113t154.5 67.5t171 22.5q214 1 320 -95 q82 -73 81 -202q0 -38 -7 -82l-119 -668q0 -10 -13 -10h-153q-4 0 -8 10l-6 84q0 8 -5.5 9t-9.5 -3q-23 -18 -60.5 -39.5t-83.5 -40t-97.5 -29.5t-100.5 -11q-207 0 -293 91q-65 69 -65 170q0 31 6 66zM276 307q-6 -29 0.5 -55.5t27 -49t59 -35.5t100.5 -13q92 0 160.5 24.5 t115.5 64.5t74 88t37 95l4 29q2 4 -1 7t-7 3h-287q-84 -4 -136 -19.5t-83 -37t-45 -48t-19 -53.5z" />
<glyph unicode="b" horiz-adv-x="1286" d="M88 10l250 1422q4 10 12 10h174q12 0 8 -10l-86 -488q-2 -6 4.5 -10t16.5 6t41 29.5t73 39t94 34t105 14.5q113 0 196 -39t134 -110q52 -72 68 -172q7 -45 7 -93q0 -59 -11 -125q-23 -121 -74 -219t-127 -170t-173.5 -110.5t-209.5 -38.5q-39 0 -80 10t-78 27.5t-67.5 38 t-47.5 40.5q-4 4 -10 5t-10 -9l-35 -82q-6 -10 -12 -10h-154q-12 0 -8 10zM373 518q-10 -54 -10 -101q1 -93 39 -161q58 -102 198 -102q74 0 136.5 26.5t111.5 75.5t83 115.5t48 146.5q8 47 8 89q0 29 -4 57q-10 66 -42 115.5t-85 76.5t-127 27q-70 0 -129 -27t-105 -76 t-77 -115.5t-45 -146.5z" />
<glyph unicode="c" horiz-adv-x="1204" d="M129 299q-7 41 -7 87q0 62 13 132q20 121 71.5 220.5t128.5 170t178 109.5t222 39q197 0 305.5 -95.5t118.5 -265.5q0 -10 -12 -10h-182q-6 0 -11 10q-16 92 -80.5 139.5t-168.5 47.5q-74 0 -136.5 -27t-110.5 -76t-81 -115.5t-47 -146.5q-9 -49 -9 -92q0 -28 4 -54 q9 -66 40.5 -115.5t84 -76t125.5 -26.5q104 0 185.5 47t130.5 139q6 10 14 10h182q12 0 9 -10q-72 -172 -213.5 -266t-337.5 -94q-121 0 -208 38.5t-139.5 110.5t-68.5 170z" />
<glyph unicode="d" horiz-adv-x="1263" d="M90 299q-7 41 -7 87q0 62 13 132q20 119 71.5 218.5t127.5 171t173 110.5t210 39q53 0 100 -14.5t82 -34t58.5 -39t31.5 -29.5q6 -10 12.5 -6t8.5 10l86 488q4 10 12 10h174q12 0 8 -10l-250 -1422q-4 -10 -12 -10h-153q-8 0 -9 10l-6 82q-2 10 -8 9t-12 -5 q-25 -20 -63 -40.5t-81 -38t-87 -27.5t-83 -10q-113 0 -195.5 38.5t-134 110.5t-67.5 170zM286 372q9 -66 40.5 -115.5t85 -76t127.5 -26.5q70 0 129 26.5t105 75.5t78 115.5t46 146.5q9 51 9 96q0 26 -3 50q-8 66 -36.5 115.5t-79 76.5t-119.5 27q-74 0 -136.5 -27 t-111.5 -76t-82 -115.5t-47 -146.5q-9 -49 -9 -92q0 -28 4 -54z" />
<glyph unicode="e" horiz-adv-x="1228" d="M130 299q-7 43 -7 90q0 61 12 129q20 121 70.5 220.5t127.5 170t176 109.5t218 39t206 -39t138 -110.5t67 -171.5q7 -43 6 -90q0 -61 -11 -128q-6 -33 -17 -59q-6 -10 -12 -10h-764q-12 0 -12 -11q-5 -28 -5 -54.5t5 -52.5q10 -52 40.5 -91t81 -62.5t117.5 -23.5 q111 0 177.5 41t109.5 102q4 10 16 10h183q10 0 8 -10q-68 -152 -209 -234.5t-315 -82.5q-115 0 -200 38.5t-137.5 110.5t-69.5 170zM358 612q-2 -4 1 -7t8 -3h557q8 0 12 10q4 22 4 44q0 24 -4 48q-8 48 -36 87.5t-78 65.5t-126 26q-74 0 -134 -29t-103 -71t-68.5 -88 t-32.5 -83z" />
<glyph unicode="f" horiz-adv-x="747" d="M121 893l24 133q0 10 13 10h182q8 0 12 11l27 153q42 242 318 242h14h137q8 0 8 -10l-29 -154q0 -10 -10 -10h-135q-47 0 -77 -28t-38 -75l-20 -118q-4 -10 8 -11h221q8 0 8 -10l-24 -133q0 -10 -12 -10h-222q-10 0 -10 -11l-154 -862q0 -10 -12 -10h-174q-8 0 -8 10 l154 862q0 10 -11 11h-182q-8 0 -8 10z" />
<glyph unicode="g" horiz-adv-x="1214" d="M68 -121q0 10 10 10h178q6 0 10 -10q2 -18 15.5 -40.5t41 -42t71.5 -34t108 -14.5q80 0 140 25.5t102 66.5t66 93.5t34 105.5l10 55q2 6 -5 10.5t-15 -6.5q-10 -10 -40 -30.5t-73 -40t-95.5 -33.5t-105.5 -14q-104 0 -186 38.5t-135.5 110.5t-72.5 170q-9 45 -9 95 q0 59 12 124q20 119 71.5 218.5t127 171t173 110.5t210.5 39q39 0 79.5 -10.5t77.5 -25.5t67 -36.5t48 -42.5q12 -12 21 2l34 82q6 10 13 10h153q12 0 8 -10l-174 -987q-18 -104 -68 -189.5t-125 -146.5t-170 -95t-204 -34q-94 0 -171 24.5t-130 66.5t-81 97q-22 45 -22 93 q0 12 1 24zM319 372q9 -67 40.5 -116t85 -75.5t126.5 -26.5q70 0 129.5 26.5t105.5 75.5t77.5 115.5t46.5 146.5q9 51 9 96q0 26 -3 50q-8 67 -37 116t-79 76t-120 27q-74 0 -136 -27t-111.5 -76t-82 -115.5t-46.5 -146.5q-9 -49 -9 -92q0 -28 4 -54z" />
<glyph unicode="h" horiz-adv-x="1204" d="M59 10l252 1422q0 10 13 10h174q8 0 8 -10l-88 -496q-2 -8 6 -10t16 6q55 59 132 92t157 33q119 0 197 -38t121 -103.5t53 -153.5q4 -31 4 -65q0 -60 -12 -124l-101 -563q0 -10 -12 -10h-174q-8 0 -8 10l100 563q7 38 7 76q0 19 -2 37q-5 56 -29.5 99.5t-71.5 70.5 t-123 27q-66 0 -120 -26t-96 -69t-69.5 -99t-38.5 -116l-100 -563q0 -10 -12 -10h-174q-8 0 -9 10z" />
<glyph unicode="i" horiz-adv-x="544" d="M86 10l180 1016q0 10 13 10h174q8 0 8 -10l-180 -1016q0 -10 -13 -10h-174q-8 0 -8 10zM279 1217l38 215q0 10 13 10h215q8 0 8 -10l-39 -215q0 -10 -12 -11h-215q-8 0 -8 11z" />
<glyph unicode="j" horiz-adv-x="655" d="M-88 -395l27 153q4 10 12 11h119q61 0 90.5 27.5t38.5 74.5l204 1155q0 10 13 10h174q8 0 8 -10l-211 -1190q-23 -127 -103 -186q-74 -56 -192 -56h-16h-156q-8 0 -8 11zM416 1217l39 215q0 10 10 10h215q10 0 10 -10l-39 -215q-4 -10 -12 -11h-215q-12 0 -8 11z" />
<glyph unicode="k" horiz-adv-x="1204" d="M70 10l252 1422q0 10 12 10h174q8 0 8 -10l-141 -803q-2 -4 3 -6t9 2l543 401q10 8 19 9t14 1h251q14 0 5 -10l-439 -324q-8 -8 -2 -16l275 -676q4 -10 -11 -10h-184q-10 0 -16 10l-228 559q-2 8 -14 0l-268 -200q-4 -4 -6 -13l-62 -346q0 -10 -12 -10h-174q-8 0 -8 10z " />
<glyph unicode="l" horiz-adv-x="532" d="M76 10l252 1422q0 10 12 10h174q8 0 8 -10l-252 -1422q0 -10 -12 -10h-174q-8 0 -8 10z" />
<glyph unicode="m" horiz-adv-x="1826" d="M84 10l178 1016q4 10 12 10h154q8 0 8 -10l4 -92q2 -10 11.5 -8t13.5 8q39 55 114.5 89t151.5 34q53 0 92 -6.5t70 -20.5t56.5 -37.5t56.5 -58.5q6 -6 10 -7t14 7q35 33 78 56.5t87 38.5t87 21.5t80 6.5q202 0 280 -126q52 -83 51 -211q0 -67 -14 -147l-98 -563 q-4 -10 -12 -10h-174q-12 0 -9 10l99 563q10 57 13 113v18q0 46 -14 82q-16 43 -57 70t-116 27q-72 0 -121 -26t-82 -69t-51.5 -99t-28.5 -116l-98 -563q-2 -4 -6 -8q-2 -2 -6 -2h-175h-2q-6 0 -6 4q-4 2 0 6l99 563q10 59 12 115v12q0 49 -16 88q-18 43 -57.5 69t-113.5 26 q-66 0 -113.5 -26t-81.5 -69t-55.5 -99t-31.5 -116l-98 -563q-4 -10 -13 -10h-174q-12 0 -8 10z" />
<glyph unicode="n" horiz-adv-x="1214" d="M78 10l178 1016q4 10 12 10h154q8 0 8 -10l4 -92q2 -10 10.5 -8t12.5 6q41 45 113.5 85t177.5 40q111 0 187.5 -38t121.5 -103.5t57 -153.5q5 -35 5 -72q0 -56 -11 -117l-98 -563q-4 -10 -13 -10h-174q-12 0 -8 10l98 563q7 41 7 81q0 16 -1 32q-4 56 -28.5 99.5 t-71.5 70.5t-123 27q-66 0 -120 -26t-96 -69t-70.5 -99t-38.5 -116l-99 -563q-4 -10 -12 -10h-174q-12 0 -8 10z" />
<glyph unicode="o" horiz-adv-x="1247" d="M130 299q-7 43 -7 90q0 61 12 129q20 121 71.5 220.5t129.5 170t179 109.5t222 39q119 0 207 -39t140.5 -110.5t69.5 -171.5q8 -46 8 -95q0 -59 -11 -123q-23 -121 -74 -219t-130 -170t-180 -110.5t-220 -38.5q-121 0 -208 38.5t-139.5 110.5t-69.5 170zM325 372 q9 -66 40.5 -115.5t85 -76t127.5 -26.5t136 26.5t111 75.5t83 115.5t48 146.5q8 47 8 89q0 29 -4 57q-10 66 -41.5 115.5t-85 76.5t-126.5 27q-74 0 -136.5 -27t-111.5 -76t-82 -115.5t-47 -146.5q-9 -49 -8 -92q-1 -28 3 -54z" />
<glyph unicode="p" horiz-adv-x="1263" d="M29 -395l252 1421q0 10 12 10h153q4 0 9 -10l6 -84q2 -10 8 -8t10 6q25 23 63 43.5t81 36.5t87 26.5t83 10.5q113 0 195.5 -39t134 -110.5t67.5 -171.5q7 -44 7 -92q0 -60 -11 -126q-20 -121 -71.5 -219t-127.5 -170t-173 -110.5t-210 -38.5q-53 0 -100 14t-83 33.5 t-59.5 39t-29.5 29.5t-13.5 6t-9.5 -10l-86 -487q0 -10 -10 -11h-174q-10 0 -10 11zM379 372q8 -67 36.5 -116t79 -75.5t119.5 -26.5q74 0 136.5 26.5t111.5 75.5t82 115.5t47 146.5q8 47 8 89q0 30 -4 57q-10 67 -41.5 116t-85 76t-127.5 27q-70 0 -129 -27t-105 -76 t-77 -115.5t-45 -146.5q-9 -51 -9 -96q0 -26 3 -50z" />
<glyph unicode="q" horiz-adv-x="1263" d="M125 299q-7 44 -7 92q0 60 11 127q20 119 72.5 218.5t128.5 171t172 110.5t209 39q39 0 79.5 -10.5t78.5 -26.5t68 -36.5t46 -43.5q4 -4 11 -6t12 8l34 84q4 10 13 10h153q8 0 8 -10l-251 -1421q0 -10 -11 -11h-174q-10 0 -10 11l86 487q2 6 -3 10t-15 -6 q-12 -10 -42 -29.5t-73 -39t-94.5 -33.5t-104.5 -14q-113 0 -195.5 38.5t-134 110.5t-67.5 170zM320 372q10 -67 41.5 -116t85 -75.5t126.5 -26.5q70 0 129.5 26.5t105.5 75.5t76.5 115.5t45.5 146.5q9 51 9 96q0 26 -3 50q-8 67 -37 116t-79 76t-120 27q-74 0 -136 -27 t-111.5 -76t-82 -115.5t-46.5 -146.5q-8 -47 -8 -89q0 -30 4 -57z" />
<glyph unicode="r" horiz-adv-x="806" d="M84 10l178 1016q4 10 12 10h154q8 0 8 -10l4 -92q2 -10 9.5 -8t13.5 6q61 53 126.5 89t143.5 36h105q8 0 8 -10l-27 -154q-4 -10 -12 -10h-105q-66 0 -120 -26t-96 -69t-70.5 -99t-38.5 -116l-98 -563q-4 -10 -13 -10h-174q-12 0 -8 10z" />
<glyph unicode="s" horiz-adv-x="1114" d="M94 340q4 10 12 10h173q14 0 10 -10q-2 -13 -2 -25q0 -62 52 -107q62 -54 185 -54q39 0 85 5t87 22.5t72 48t41 79.5q2 11 2 21q1 30 -17 48q-24 26 -62 39t-81 18t-76 9q-72 8 -148.5 21.5t-134.5 45.5t-90 88q-21 37 -21 92q0 28 5 61q10 63 49 118.5t100.5 96.5 t142.5 65.5t177 24.5q94 0 173 -22.5t131.5 -67.5t76.5 -113q14 -39 14 -86q0 -34 -8 -72q0 -10 -10 -10h-176q-8 0 -8 10q4 19 4 36q0 60 -45 100q-57 50 -182 51q-117 0 -176.5 -42t-67.5 -89q-2 -12 -2 -23q1 -27 15 -45q20 -25 54.5 -37t77.5 -17t80 -12q76 -10 154 -22 t137 -43t91 -88q21 -38 21 -95q0 -28 -5 -61q-16 -88 -61.5 -150.5t-113 -102.5t-153.5 -58t-182 -18q-117 0 -199 28.5t-130 77.5q-47 48 -65 114q-10 39 -11 81q0 29 5 59z" />
<glyph unicode="t" horiz-adv-x="768" d="M127 893l23 133q4 10 12 10h182q8 0 12 11l50 276q0 10 12 10h174q8 0 8 -10l-49 -276q-4 -10 8 -11h221q12 0 8 -10l-22 -133q-4 -10 -12 -10h-222q-12 0 -12 -11l-104 -596q-3 -16 -3 -29q0 -27 13 -45q20 -28 82 -28h121q8 0 8 -10l-27 -154q-4 -10 -12 -10h-158h-16 q-117 0 -172 56q-43 43 -43 122q0 30 6 64l111 630q0 10 -9 11h-182q-12 0 -8 10z" />
<glyph unicode="u" horiz-adv-x="1185" d="M124 274q-2 27 -2 55q0 64 11 134l100 563q4 10 13 10h174q12 0 8 -10l-100 -563q-7 -43 -7 -83q0 -16 1 -32q4 -56 28.5 -98.5t72.5 -69t124 -26.5q63 0 118.5 25.5t97.5 68.5t69.5 99t37.5 116l101 563q4 10 12 10h174q12 0 8 -10l-178 -1016q-4 -10 -12 -10h-154 q-8 0 -8 10l-6 92q0 10 -8 8.5t-13 -6.5q-18 -20 -46.5 -41.5t-66.5 -40t-83 -30.5t-94 -12q-127 0 -206 37.5t-119 103t-47 153.5z" />
<glyph unicode="v" horiz-adv-x="1204" d="M213 1026q-2 10 12 10h187q6 0 10 -10l123 -823q2 -8 9 -8t11 8l416 823q4 10 10 10h187q14 0 10 -10l-526 -1016q-4 -10 -13 -10h-260q-6 0 -10 10z" />
<glyph unicode="w" horiz-adv-x="1699" d="M244 1026q-2 10 12 10h174q6 0 10 -10l33 -823q0 -8 8 -8t13 8l348 823q4 10 10 10h252q6 0 10 -10l57 -823q0 -8 8.5 -8t12.5 8l324 823q4 10 10 10h174q14 0 12 -10l-424 -1016q-4 -10 -14 -10h-260q-4 0 -8 10l-56 817q0 8 -8 8.5t-12 -8.5l-340 -817q-4 -10 -12 -10 h-261q-6 0 -10 10z" />
<glyph unicode="x" horiz-adv-x="1132" d="M10 10l457 492q10 10 4 20l-281 504q-6 10 5 10h196q8 0 17 -10l200 -354q6 -14 21 0l327 354q6 10 17 10h196q12 0 7 -10l-465 -504q-8 -10 -4 -20l288 -492q4 -4 1 -7t-7 -3h-207q-8 0 -14 10l-197 344q-8 8 -16 0l-322 -344q-10 -10 -18 -10h-203q-12 0 -2 10z" />
<glyph unicode="y" horiz-adv-x="1148" d="M-20 -395l24 153q4 10 12 11h232q92 0 130 52q27 37 27 90q0 21 -4 44l-8 55l-168 1016q0 10 15 10h186q8 0 8 -10l123 -823q2 -8 9 -8t12 8l415 823q6 10 13 10h186q14 0 8 -10l-530 -1026l-90 -178q-35 -61 -67 -105.5t-68.5 -71t-84 -39t-108.5 -12.5h-264 q-12 0 -8 11z" />
<glyph unicode="z" horiz-adv-x="1019" d="M27 10l26 154l5 10t8 10l665 662q4 4 3 10t-9 6h-516q-8 0 -8 10l28 154q0 10 11 10h755q10 0 11 -10l-29 -154q0 -6 -10 -20l-662 -662q-6 -4 -4 -10t8 -6h561q12 0 9 -10l-27 -154q0 -10 -12 -10h-805q-8 0 -8 10z" />
<glyph unicode="{" horiz-adv-x="999" d="M195 467l18 102q4 10 12 11h113q43 0 81 31.5t48 78.5l80 461q12 74 34.5 128t58.5 90t87 54.5t125 18.5h113q12 0 8 -10l-19 -105q0 -8 -10 -8h-113q-45 0 -83.5 -33t-47.5 -78l-79 -456q-12 -66 -31 -106t-41.5 -64.5t-46 -38t-43.5 -21.5q-6 -4 -2 -8 q16 -8 35.5 -21.5t33 -38t18.5 -65.5t-5 -102l-82 -459q-8 -45 19.5 -78t72.5 -33h113q10 0 8 -8l-19 -104q0 -10 -12 -11h-113q-145 0 -187 72t-15 217l82 465q8 45 -18 77t-71 32h-112q-10 0 -10 10z" />
<glyph unicode="|" horiz-adv-x="452" d="M-4 -395l319 1827q4 10 11 10h141q12 0 8 -10l-321 -1827q0 -10 -13 -11h-141q-4 0 -4 11z" />
<glyph unicode="}" horiz-adv-x="999" d="M43 -395l18 104q2 8 13 8h112q45 0 83 33t46 78l82 459q10 61 29.5 102t42.5 65.5t46.5 38t41.5 21.5q10 4 2 8q-18 8 -36.5 21.5t-32 38t-18.5 64.5t7 106l80 456q8 45 -18.5 78t-71.5 33h-113q-10 0 -10 8l19 105q4 10 12 10h112q145 0 187.5 -73t15.5 -218l-80 -461 q-10 -47 17.5 -78.5t70.5 -31.5h113q12 0 8 -11l-18 -102q0 -10 -10 -10h-113q-45 0 -83 -32t-46 -77l-82 -465q-12 -74 -34.5 -128t-58.5 -90t-87 -53.5t-125 -17.5h-113q-8 0 -8 11z" />
<glyph unicode="~" horiz-adv-x="1087" d="M76 440l8 52q16 94 94 157.5t195 63.5q59 0 115.5 -22.5t108.5 -50.5t97 -50.5t84 -22.5q29 0 55.5 20.5t32.5 49.5l11 65q4 10 12 11l147 -41q8 -4 8 -10l-10 -56q-8 -45 -32.5 -85t-62.5 -68.5t-87 -46t-107 -17.5q-59 0 -115.5 22.5t-108.5 49t-97 49t-82 22.5 q-29 0 -56.5 -21.5t-33.5 -49.5l-10 -62q0 -10 -13 -10l-145 41q-10 4 -8 10z" />
<glyph />
<glyph unicode="&#xa0;" />
<glyph unicode="&#xa1;" horiz-adv-x="536" d="M0 10l70 396l127 600q4 10 12 10h131q12 0 9 -10l-86 -600l-70 -396q0 -10 -12 -10h-172q-8 0 -9 10zM170 1182l45 250q0 10 13 10h246q8 0 8 -10l-45 -250q0 -10 -13 -10h-245q-8 0 -9 10z" />
<glyph unicode="&#xa2;" horiz-adv-x="1140" d="M103.5 315.5q-11.5 92.5 7.5 202.5q18 111 63 203t111.5 160.5t153.5 112.5t192 57q6 2 8 10l29 172q4 10 10 10h141q12 0 8 -10l-30 -176q0 -4 1 -5t1 -3q154 -20 239.5 -112.5t96.5 -240.5q0 -10 -13 -10h-184q-4 0 -8 10q-29 137 -148 172q-4 2 -10 0t-8 -10 l-119 -680q-4 -14 12 -10q139 37 209 172q6 10 13 10h184q12 0 8 -10q-66 -152 -180.5 -242t-272.5 -112q-10 0 -12 -9l-31 -172q0 -10 -10 -10h-141q-8 0 -8 10l30 170q0 8 -4 11q-100 12 -171.5 55t-113.5 112.5t-53.5 162zM305 518q-25 -135 15 -229t145 -123 q16 -4 16 10l121 684q4 14 -12 10q-115 -29 -188.5 -123t-96.5 -229z" />
<glyph unicode="&#xa3;" horiz-adv-x="1302" d="M4 10l27 154q4 10 12 10h70q61 0 89.5 27.5t39.5 74.5l65 371q0 10 -8 10h-170q-12 0 -8 11l26 153q0 10 13 10h170q10 0 10 11l37 209q18 98 67.5 175t120 129t157.5 79.5t181 27.5q98 0 178 -25.5t133.5 -76.5t78 -130t10.5 -183q0 -10 -13 -11h-184q-8 0 -8 11 q18 104 -35 172.5t-191 68.5q-123 0 -202.5 -66.5t-98.5 -170.5l-36 -209q0 -10 10 -11h258q8 0 8 -10l-27 -153q-4 -10 -12 -11h-258q-12 0 -12 -10l-66 -371q-6 -35 -17 -55t-26 -37q-10 -10 2 -10h549q8 0 12 10l39 217q0 10 11 11h174q10 0 10 -11l-70 -391 q-4 -10 -12 -10h-1096q-12 0 -8 10z" />
<glyph unicode="&#xa4;" horiz-adv-x="1351" d="M49 244q-10 6 2 14l166 141q8 8 4 17q-23 63 -28 139t12 162q16 84 47 160.5t76 138.5q8 10 2 18l-117 144q-10 6 2 14l129 108q6 10 14 0l105 -131q10 -10 22 -4q68 41 150 65.5t174 24.5q180 0 287 -88q14 -10 26 2l156 131q6 10 14 0l88 -108q10 -6 -2 -14l-168 -144 q-10 -6 -6 -20q23 -63 28 -137t-11 -160q-31 -174 -125 -303q-4 -8 2 -15l119 -141q10 -6 -3 -14l-129 -109q-8 -10 -14 0l-108 131q-10 10 -25 0q-139 -88 -320 -88q-182 0 -292 88q-10 8 -19 0l-155 -131q-8 -10 -15 0zM395.5 570.5q10.5 -66.5 42 -115.5t84.5 -76 t127 -27t136.5 27t111.5 76t82 115.5t47 146.5t5 146.5t-41 115.5t-85 75.5t-127 26.5t-136 -26.5t-111.5 -75.5t-83 -115.5t-48.5 -146.5q-14 -80 -3.5 -146.5z" />
<glyph unicode="&#xa5;" horiz-adv-x="1390" d="M145 231l29 164q4 10 12 11h389q12 0 13 10l35 194v-2q0 12 -9 13h-389q-12 0 -8 10l29 164q0 10 12 10h279q10 0 6 10l-269 617q-6 10 9 10h206q8 0 15 -10l248 -586q8 -12 16 0l459 586q8 10 22 10h203q10 0 4 -10l-489 -617q-10 -10 0 -10h309q8 0 8 -10l-29 -164 q-4 -10 -12 -10h-414q-8 0 -12 -11l-35 -194q0 -10 9 -10h413q12 0 8 -11l-28 -164q0 -10 -10 -10h-414q-12 0 -12 -10l-37 -201q0 -10 -13 -10h-174q-8 0 -8 10l37 201q0 10 -8 10h-389q-10 0 -11 10z" />
<glyph unicode="&#xa6;" horiz-adv-x="473" d="M14 -393l146 821q4 10 10 10h141q12 0 8 -10l-145 -821q0 -10 -12 -10h-142q-6 0 -6 10zM193 610l143 822q4 10 10 10h141q12 0 9 -10l-144 -822q-4 -10 -12 -10h-141q-10 0 -6 10z" />
<glyph unicode="&#xa7;" horiz-adv-x="1300" d="M96 -10q4 10 13 10h184q12 0 8 -10q-18 -104 46.5 -173t201.5 -69q123 0 196.5 52.5t88.5 123.5q10 63 -19 103.5t-78 65t-108.5 39.5t-108.5 30q-92 25 -178 56.5t-143.5 83.5t-77 133t21.5 208q20 70 64.5 134.5t109.5 111.5q8 8 2 16q-23 41 -29.5 91.5t5.5 115.5 q14 82 62.5 147.5t119 110.5t157.5 68.5t181 23.5q98 0 181 -25.5t140.5 -76.5t85 -130t13.5 -183q0 -10 -12 -11h-185q-8 0 -8 11q18 104 -45 172.5t-201 68.5q-123 0 -197.5 -52t-86.5 -124q-12 -63 17.5 -103t78.5 -64.5t107.5 -40t107.5 -30.5q94 -25 180 -56.5 t143.5 -83.5t76 -134t-20.5 -207q-25 -72 -67 -136t-107 -112q-10 -6 -4 -16q23 -41 30 -91t-4 -114q-14 -84 -62 -148.5t-119 -109.5t-158 -68.5t-181 -23.5q-98 0 -181 25.5t-141.5 77t-86 130t-13.5 183.5zM328.5 501.5q11.5 -44.5 46.5 -74.5t89 -48.5t116 -34.5 q61 -16 128.5 -33.5t131.5 -44.5q115 37 151 154q23 70 11.5 115t-46 74.5t-88 48t-114.5 34.5t-131 33.5t-131 44.5q-111 -39 -152 -154q-23 -70 -11.5 -114.5z" />
<glyph unicode="&#xa8;" horiz-adv-x="909" d="M147 1219l39 213q0 10 13 10h215q8 0 8 -10l-39 -213q0 -10 -12 -11h-215q-8 0 -9 11zM647 1219l39 213q0 10 12 10h215q8 0 9 -10l-39 -213q0 -10 -13 -11h-215q-8 0 -8 11z" />
<glyph unicode="&#xa9;" horiz-adv-x="1650" d="M131 723q27 147 105.5 278.5t193.5 229.5t256 154.5t289 56.5q150 0 270.5 -56.5t200.5 -154.5t114 -229.5t7 -278.5q-27 -150 -107 -281t-194.5 -229t-256 -155.5t-290.5 -57.5q-147 0 -268 57.5t-201 155.5t-113 229t-6 281zM193 723q-25 -135 5.5 -256t104.5 -210 t183.5 -141.5t244.5 -52.5t264 52.5t234.5 141.5t178 210t97.5 256t-7 255t-105.5 209t-184 141t-245.5 52t-263.5 -52t-233 -141t-177 -209t-96.5 -255zM442.5 542q-12.5 81 6.5 179q16 98 57 179t101.5 140.5t139 92t171.5 32.5q96 0 159.5 -33.5t101.5 -78.5t51 -92.5 t9 -71.5q0 -6 -8 -6h-109q-4 0 -6 6q-4 20 -13 49t-34 56.5t-65.5 47t-104.5 19.5q-127 0 -213 -90t-115 -250t25.5 -250t181.5 -90q63 0 110.5 17.5t81.5 44t54.5 56t32.5 54.5q2 6 10 6h104q8 0 9 -10q-6 -31 -38 -77t-86.5 -90t-129 -75t-166.5 -31t-158.5 33 t-106.5 92.5t-52.5 140.5z" />
<glyph unicode="&#xaa;" horiz-adv-x="581" d="M106 642q7 36 27.5 66.5t54 53t81.5 35.5t109 13h124q28 0 34.5 9.5t8.5 24.5q4 17 3 36t-12.5 35.5t-38 27t-75.5 10.5q-72 0 -109 -29.5t-44 -71.5q0 -6 -7 -6h-95q-4 0 -5 6q9 48 36 85t64.5 61t83 36.5t92.5 12.5q115 0 172.5 -51.5t40.5 -153.5l-65 -361q0 -5 -7 -5 h-82q-2 0 -5 5l-3 46q0 4 -3 4.5t-5 -1.5q-12 -10 -32.5 -21.5t-45.5 -21.5t-52.5 -16t-54.5 -6q-111 0 -157.5 49t-32.5 128zM211 642q-3 -16 0.5 -30.5t14.5 -26.5t32 -19t54 -7q50 0 87 13.5t62 35t40 47.5t20 51l2 16q1 2 -0.5 3.5t-3.5 1.5h-155q-46 -2 -74 -10.5 t-44.5 -20t-24 -26t-10.5 -28.5z" />
<glyph unicode="&#xab;" horiz-adv-x="1220" d="M168 510q-4 10 4 18l522 504q2 6 13 6h151q6 0 8 -5t-2 -9l-520 -496q-8 -8 -4 -18l346 -496q4 -14 -12 -14h-152q-8 0 -8 6zM547 510q-4 10 4 18l522 504q2 6 12 6h152q6 0 8 -5t-2 -9l-520 -496q-8 -8 -4 -18l346 -496q4 -14 -12 -14h-152q-8 0 -8 6z" />
<glyph unicode="&#xac;" horiz-adv-x="1343" d="M166 424l31 174q0 10 12 10h1016q8 0 8 -10l-105 -586q0 -10 -10 -10h-174q-10 0 -10 10l70 391q4 10 -9 11h-821q-12 0 -8 10z" />
<glyph unicode="&#xad;" horiz-adv-x="1056" d="M8 10l252 1422q0 10 12 10h842q8 0 8 -10l-252 -1422q0 -10 -12 -10h-842q-8 0 -8 10zM76 96l465 625l-246 625zM94 49h709l-246 625zM332 1395l243 -627l465 627h-708zM594 721l244 -623l219 1245q-115 -154 -233.5 -311.5t-229.5 -310.5z" />
<glyph unicode="&#xae;" horiz-adv-x="1650" d="M131 723q27 147 105.5 278.5t193.5 229.5t256 155.5t289 57.5q150 0 270.5 -57.5t200.5 -155.5t114 -229.5t7 -278.5q-27 -150 -107 -281t-194.5 -229t-256 -155.5t-290.5 -57.5q-147 0 -268 57.5t-201 155.5t-113 229t-6 281zM193 723q-25 -135 5.5 -256t104.5 -210 t183.5 -141.5t244.5 -52.5t264 52.5t234.5 141.5t178 210t97.5 256t-7 255t-105.5 210t-184 142t-245.5 52t-263.5 -52t-233 -142t-177 -210t-96.5 -255zM434 299l150 844q0 10 12 10h424q51 0 93 -20.5t69.5 -56.5t40 -83t2.5 -102q-14 -80 -63.5 -141.5t-121.5 -90.5 q-12 -4 -6 -14l94 -344q4 -6 -1 -9t-9 -3h-96q-14 0 -18 10l-84 326q0 8 -13 8h-291q-6 0 -8 -6l-57 -328q0 -10 -12 -10h-97q-8 0 -8 10zM631 748q-4 -10 8 -11h297q29 0 57.5 12.5t52 34t40 49t22.5 58.5q10 63 -25.5 110.5t-95.5 47.5h-293q-12 0 -12 -11z" />
<glyph unicode="&#xaf;" horiz-adv-x="716" d="M172 1217l23 118q0 10 8 11h504q10 0 10 -11l-23 -118q0 -10 -12 -11h-504q-6 0 -6 11z" />
<glyph unicode="&#xb0;" horiz-adv-x="819" d="M168 1147q12 66 46 124t84 101t112.5 67.5t128.5 24.5t120 -24.5t88.5 -67.5t50 -101.5t3.5 -123.5q-12 -66 -47 -123t-85.5 -100t-112.5 -68t-128 -25t-119 25t-89 68t-50 100t-2 123zM295 1147q-6 -39 2 -74t29.5 -60.5t53.5 -40t71 -14.5t76.5 14.5t67.5 40t51.5 60.5 t27.5 74q14 80 -32 135t-126 55q-39 0 -76 -14t-66.5 -41t-51 -61.5t-27.5 -73.5z" />
<glyph unicode="&#xb1;" horiz-adv-x="1335" d="M59 10l29 154q0 10 12 10h1018q8 0 8 -10l-28 -154q0 -10 -11 -10h-1017q-10 0 -11 10zM207 840l29 164q0 10 12 10h391q8 0 12 10l72 406q0 10 12 10h172q8 0 8 -10l-71 -406q-4 -10 8 -10h414q8 0 8 -10l-29 -164q-4 -10 -12 -11h-414q-8 0 -12 -10l-72 -405 q0 -10 -12 -11h-172q-8 0 -8 11l71 405q4 10 -8 10h-391q-12 0 -8 11z" />
<glyph unicode="&#xb2;" horiz-adv-x="798" d="M104 357l14 78q1 2 2.5 7t4.5 7l360 300q11 9 30 25t38 37t34.5 46t20.5 50q3 21 -1.5 46t-18 46t-39.5 34.5t-64 13.5q-32 0 -59.5 -11t-49.5 -29t-36 -41t-19 -49q0 -5 -7 -6h-94q-4 0 -4 6q9 50 34.5 91.5t63.5 71t86 45.5t101 16q60 0 104 -18.5t70.5 -50t35.5 -74.5 t2 -91q-8 -42 -28 -77.5t-45 -64t-50 -50t-41 -36.5l-283 -224q-2 -3 -2 -6t5 -3h356q7 0 5 -5l-15 -84q-2 -5 -6 -5h-500q-7 0 -5 5z" />
<glyph unicode="&#xb3;" horiz-adv-x="800" d="M141 562q0 5 7 5h94q4 0 4 -5q-4 -22 1 -44.5t20 -41t39.5 -30t61.5 -11.5q34 0 65 10t55.5 27t40.5 40.5t21 49.5q10 65 -28.5 104.5t-105.5 39.5h-39q-7 0 -5 6l15 82q2 6 6 6h39q31 0 58.5 9.5t49 25.5t36 38.5t19.5 49.5q4 24 -2 46.5t-21.5 39.5t-40 27.5 t-56.5 10.5q-30 0 -57.5 -11.5t-49 -29.5t-36 -41t-17.5 -48q-3 -5 -7 -6h-94q-6 0 -4 6q7 49 32.5 89.5t63.5 70.5t85.5 47t100.5 17q55 0 97.5 -16t70 -45.5t37.5 -70t3 -86.5q-7 -39 -26 -68t-40.5 -49t-41 -30.5t-30.5 -14.5q-5 -1 -6 -5.5t4 -5.5q14 -4 33 -18 t35.5 -37t25 -56.5t0.5 -76.5q-8 -49 -33.5 -89t-64.5 -69.5t-91 -46t-114 -16.5t-105 17.5t-69 48t-34.5 71t-1.5 84.5z" />
<glyph unicode="&#xb4;" horiz-adv-x="536" d="M193 1221l122 206l9.5 9.5t15.5 5.5h178q16 0 6 -15l-182 -206q-4 -4 -11 -9.5t-16 -5.5h-116q-16 0 -6 15z" />
<glyph unicode="&#xb5;" horiz-adv-x="1056" d="M8 10l252 1422q0 10 12 10h842q8 0 8 -10l-252 -1422q0 -10 -12 -10h-842q-8 0 -8 10zM76 96l465 625l-246 625zM94 49h709l-246 625zM332 1395l243 -627l465 627h-708zM594 721l244 -623l219 1245q-115 -154 -233.5 -311.5t-229.5 -310.5z" />
<glyph unicode="&#xb6;" horiz-adv-x="1210" d="M205 1044q14 78 54 149t98.5 125t131 87t152.5 37h590q12 0 8 -10l-321 -1827q0 -10 -13 -11h-174q-8 0 -8 11l295 1673q4 10 -8 10h-174q-8 0 -13 -10l-295 -1673q0 -10 -12 -11h-174q-8 0 -8 11l182 1032q4 10 -8 10q-78 0 -140.5 32t-103.5 86t-57.5 126t-1.5 153z " />
<glyph unicode="&#xb7;" horiz-adv-x="491" d="M84 575l53 310q4 10 13 10h305q12 0 8 -10l-53 -310q-4 -10 -13 -10h-305q-12 0 -8 10z" />
<glyph unicode="&#xb8;" horiz-adv-x="630" d="M68 -260q4 10 12 10h67q12 0 9 -10q-6 -33 15.5 -60.5t61.5 -27.5q49 0 81 27.5t38 60.5q6 29 -2 48t-22.5 30.5t-34 16.5t-35.5 5q-27 0 -33 6l-12 17q-8 8 -5 14t7 10l117 84q4 12 -8 13q-16 0 -14.5 13t18.5 13h121q14 0 8 -10l-142 -92q-4 -4 -4 -10.5t8 -6.5 q27 0 53.5 -8t47 -26.5t31 -47t4.5 -69.5q-10 -63 -71.5 -114.5t-162.5 -51.5q-92 0 -128 52t-25 114z" />
<glyph unicode="&#xb9;" horiz-adv-x="602" d="M193 923l14 78q0 5 6 5h138q27 0 49 18.5t28 45.5l11 61q0 6 7 6h94q4 0 4 -6l-136 -768q0 -5 -7 -5h-94q-4 0 -4 5l92 521q3 17 -6 25t-22 8h-169q-6 0 -5 6z" />
<glyph unicode="&#xba;" horiz-adv-x="624" d="M133 633.5q-9 52.5 3 118.5q11 65 38.5 119t70 92t97 59t119.5 21q64 0 111.5 -21t76 -60t37.5 -92.5t-1 -117.5q-13 -66 -40.5 -118.5t-70 -91.5t-97 -60t-119.5 -21t-112 21t-75.5 60t-37.5 91.5zM238.5 673q4.5 -36 21.5 -62.5t46 -41t69 -14.5t73.5 14.5t60 41 t45 62.5t25.5 79q8 43 2.5 79t-22.5 62.5t-46 41t-68 14.5q-40 0 -74 -14.5t-60.5 -41t-44 -62.5t-25.5 -79q-7 -43 -2.5 -79z" />
<glyph unicode="&#xbb;" horiz-adv-x="1220" d="M76 14l522 496q8 8 4 18l-348 496q0 14 14 14h152q4 0 8 -6l346 -504q4 -6 3 -9t-7 -9l-522 -504q-6 -6 -12 -6h-152q-12 0 -8 14zM455 14l522 496q8 8 4 18l-348 496q0 14 14 14h152q4 0 8 -6l346 -504q4 -6 3 -9t-7 -9l-522 -504q-6 -6 -13 -6h-151q-12 0 -8 14z" />
<glyph unicode="&#xbc;" horiz-adv-x="1466" d="M127 16l1118 1422q4 4 10 4h111q16 0 4 -17l-1122 -1421q-4 -4 -10 -4h-107q-16 0 -4 16zM227 1231l13 78q0 4 8 4h137q27 0 49.5 18.5t26.5 46.5l12 60q0 6 6 6h94q4 0 5 -6l-136 -766q0 -6 -8 -6h-94q-4 0 -4 6l92 520q4 16 -5 24.5t-22 8.5h-170q-8 0 -4 6zM588 184 l12 76q2 10 3 12t3 7l455 493q4 6 12 6h92q6 0 6 -6l-88 -493q-4 -6 4 -7h123q4 0 4 -6l-14 -82q0 -6 -6 -6h-123q-6 0 -6 -6l-31 -166q0 -6 -6 -6h-94q-4 0 -4 6l28 166q2 6 -4 6h-362q-8 0 -4 6zM729 281q-4 -8 4 -9h238q4 0 8 7l57 323q0 4 -4 5t-8 -3z" />
<glyph unicode="&#xbd;" horiz-adv-x="1519" d="M106 16l1119 1422q4 4 10 4h111q16 0 4 -17l-1123 -1421q-4 -4 -10 -4h-106q-16 0 -5 16zM227 1229l13 78q0 4 8 4h137q27 0 49.5 18.5t26.5 46.5l12 60q0 6 6 6h94q4 0 5 -6l-136 -766q0 -6 -8 -6h-94q-4 0 -4 6l92 520q4 16 -5 24.5t-22 8.5h-170q-8 0 -4 6zM729 6 l14 76q0 10 7 16l360 299q10 8 29.5 24.5t38 38t35 46t20.5 49.5q2 20 -2 46t-17.5 46.5t-39 34.5t-64.5 14q-63 0 -108.5 -40t-55.5 -91q0 -6 -6 -6h-94q-4 0 -4 6q8 49 33.5 91t63.5 72t86 46.5t101 16.5q59 0 103.5 -18.5t71 -51.5t36 -75t0.5 -91q-8 -43 -28.5 -78 t-45 -63.5t-49 -50t-40.5 -35.5l-283 -226q-2 -2 -2 -5t6 -3h354q6 0 6 -6l-14 -82q-4 -6 -8 -6h-500q-4 0 -4 6z" />
<glyph unicode="&#xbe;" horiz-adv-x="1595" d="M162 777q-8 40 0 85q0 4 6 4h94q4 0 4 -4q-10 -47 19.5 -88t101.5 -41q70 0 121 37t61 92q10 66 -28.5 105t-104.5 39h-39q-6 0 -6 4l15 84q2 6 8 6h39q63 0 107 34.5t54 88.5q10 47 -21.5 86t-96.5 39q-61 -2 -107.5 -43t-54.5 -88q0 -6 -6 -7h-95q-4 0 -4 7q8 49 33 90 t62.5 70.5t86 47t101.5 17.5q111 0 167 -62.5t40 -156.5q-6 -39 -24.5 -68t-40 -49.5t-42 -31.5t-30.5 -13q-4 -2 -5.5 -6t3.5 -6q14 -4 33.5 -18.5t35 -37t24.5 -55.5t1 -76q-16 -98 -97 -159.5t-206 -61.5q-61 0 -104.5 17.5t-70 48t-34.5 70.5zM260 16l1118 1422 q4 4 11 4h110q16 0 4 -17l-1122 -1421q-4 -4 -10 -4h-107q-16 0 -4 16zM717 184l12 76q2 10 3 12t3 7l455 493q4 6 12 6h92q6 0 6 -6l-88 -493q-4 -6 5 -7h122q4 0 4 -6l-14 -82q0 -6 -6 -6h-123q-6 0 -6 -6l-31 -166q0 -6 -6 -6h-94q-4 0 -4 6l28 166q2 6 -4 6h-362 q-8 0 -4 6zM858 281q-4 -8 4 -9h238q4 0 8 7l57 323q0 4 -4 5t-8 -3z" />
<glyph unicode="&#xbf;" horiz-adv-x="1087" d="M57 399q16 88 53 149.5t90.5 106.5t120 80t140.5 70q23 10 31 20.5t16 32.5l24 146q4 10 13 10h174q12 0 8 -10l-29 -162q-23 -135 -182 -197q-80 -31 -129 -60.5t-77.5 -59t-41 -60.5t-18.5 -66q-8 -43 2 -87t40 -79.5t80 -57t122 -21.5q61 0 112 18t89 49t62.5 71 t33.5 83l4 20q0 10 12 11h174q8 0 8 -11l-4 -20q-16 -86 -62 -159t-115 -125t-157 -81.5t-188 -29.5q-111 0 -194 32.5t-135 90t-72.5 134t-4.5 162.5zM530 1182l43 250q4 10 13 10h245q12 0 9 -10l-43 -250q-4 -10 -13 -11h-245q-12 0 -9 11z" />
<glyph unicode="&#xc0;" horiz-adv-x="1437" d="M16 10l736 1422q4 10 14 10h252q6 0 10 -10l225 -1422q2 -4 -3 -7t-9 -3h-192q-4 0 -9 10l-41 293q-2 10 -14 10h-594q-8 0 -12 -10l-150 -293q-4 -10 -12 -10h-190q-12 0 -11 10zM469 487q-4 -10 8 -10h486q12 0 8 10l-107 750q-2 10 -9 10t-11 -10zM727 1824 q-2 6 3.5 10.5t11.5 4.5h178q16 0 16 -15l53 -206q2 -6 -3 -10.5t-11 -4.5h-117q-14 0 -18 15z" />
<glyph unicode="&#xc1;" horiz-adv-x="1437" d="M16 10l736 1422q4 10 14 10h252q6 0 10 -10l225 -1422q2 -4 -3 -7t-9 -3h-192q-4 0 -9 10l-41 293q-2 10 -14 10h-594q-8 0 -12 -10l-150 -293q-4 -10 -12 -10h-190q-12 0 -11 10zM469 487q-4 -10 8 -10h486q12 0 8 10l-107 750q-2 10 -9 10t-11 -10zM857 1618l122 206 l9.5 9.5t15.5 5.5h178q16 0 6 -15l-182 -206q-4 -4 -11 -9.5t-16 -5.5h-116q-16 0 -6 15z" />
<glyph unicode="&#xc2;" horiz-adv-x="1437" d="M16 10l736 1422q4 10 14 10h252q6 0 10 -10l225 -1422q2 -4 -3 -7t-9 -3h-192q-4 0 -9 10l-41 293q-2 10 -14 10h-594q-8 0 -12 -10l-150 -293q-4 -10 -12 -10h-190q-12 0 -11 10zM469 487q-4 -10 8 -10h486q12 0 8 10l-107 750q-2 10 -9 10t-11 -10zM687 1618l126 213 q6 8 13 8h229q10 0 12 -8l52 -213q2 -6 -3.5 -10.5t-11.5 -4.5h-118q-8 0 -15 8l-45 84q-8 18 -22 0l-74 -84q-4 -6 -9 -7t-10 -1h-118q-16 0 -6 15z" />
<glyph unicode="&#xc3;" horiz-adv-x="1437" d="M16 10l736 1422q4 10 14 10h252q6 0 10 -10l225 -1422q2 -4 -3 -7t-9 -3h-192q-4 0 -9 10l-41 293q-2 10 -14 10h-594q-8 0 -12 -10l-150 -293q-4 -10 -12 -10h-190q-12 0 -11 10zM469 487q-4 -10 8 -10h486q12 0 8 10l-107 750q-2 10 -9 10t-11 -10zM561 1614l9 47 q6 27 21 57.5t44 57t72 44t104 17.5q45 0 76 -14.5t53.5 -33t38.5 -32.5t33 -14q6 0 17.5 1t23.5 8t23.5 24.5t17.5 50.5q0 10 12 10h123q8 0 8 -10l-10 -50q-4 -27 -19.5 -57.5t-45 -56t-72.5 -43t-103 -17.5q-41 0 -70.5 14.5t-53 33t-41 33t-35.5 14.5q-6 0 -17.5 -1.5 t-24 -8.5t-23.5 -24.5t-17 -49.5q0 -10 -13 -11h-122q-8 0 -9 11z" />
<glyph unicode="&#xc4;" horiz-adv-x="1437" d="M16 10l736 1422q4 10 14 10h252q6 0 10 -10l225 -1422q2 -4 -3 -7t-9 -3h-192q-4 0 -9 10l-41 293q-2 10 -14 10h-594q-8 0 -12 -10l-150 -293q-4 -10 -12 -10h-190q-12 0 -11 10zM469 487q-4 -10 8 -10h486q12 0 8 10l-107 750q-2 10 -9 10t-11 -10zM518 1614l39 215 q0 10 12 10h215q8 0 8 -10l-38 -215q0 -10 -11 -10h-215q-10 0 -10 10zM1018 1614l39 215q0 10 12 10h215q8 0 8 -10l-39 -215q0 -10 -10 -10h-215q-10 0 -10 10z" />
<glyph unicode="&#xc5;" horiz-adv-x="1437" d="M16 10l736 1422q4 10 14 10h252q6 0 10 -10l225 -1422q2 -4 -3 -7t-9 -3h-192q-4 0 -9 10l-41 293q-2 10 -14 10h-594q-8 0 -12 -10l-150 -293q-4 -10 -12 -10h-190q-12 0 -11 10zM469 487q-4 -10 8 -10h486q12 0 8 10l-107 750q-2 10 -9 10t-11 -10zM762 1686 q6 37 25.5 69.5t48 57.5t63.5 39t72 14q74 0 117.5 -53t31.5 -127q-6 -37 -26.5 -69.5t-50 -56.5t-64.5 -38t-72 -14q-74 0 -116.5 52t-28.5 126zM848 1686q-8 -39 14.5 -65.5t61.5 -26.5t69.5 26.5t38.5 65.5q6 39 -15.5 65.5t-59.5 26.5q-39 0 -71 -26.5t-38 -65.5z" />
<glyph unicode="&#xc6;" horiz-adv-x="2117" d="M-12 10l1048 1422q4 10 15 10h120h3h964q8 0 8 -10l-28 -154q0 -10 -11 -10h-770q-12 0 -12 -11l-76 -428q-4 -10 8 -10h687q12 0 8 -10l-27 -154q-4 -10 -12 -10h-686q-8 0 -13 -10l-79 -451q0 -10 8 -10h770q10 0 10 -10l-29 -154q0 -10 -12 -10h-964h-3q-6 0 -6 10 l56 305h-539l-227 -305q-4 -10 -13 -10h-188q-12 0 -10 10zM549 479h444l133 758q-4 20 -14 0z" />
<glyph unicode="&#xc7;" horiz-adv-x="1439" d="M161.5 427q-14.5 136 14.5 294q29 162 96.5 298t168 234.5t230.5 153.5t283 55q111 0 194 -26.5t141.5 -68.5t94 -93t55 -102.5t23.5 -96.5t0 -74q0 -10 -10 -10h-180q-10 0 -15 10q-6 33 -20 82.5t-50 94.5t-99.5 77.5t-163.5 32.5q-215 0 -355.5 -150.5t-187.5 -416.5 t40 -416.5t302 -150.5q92 0 165 29.5t126 72.5t90 93t55 91q4 10 17 11h180q10 0 8 -11q-8 -47 -49 -118.5t-114 -142t-178 -126t-245 -69.5l-123 -76q-4 -4 -4 -10.5t8 -6.5q27 0 53.5 -8t47 -26.5t31 -47t4.5 -69.5q-10 -63 -71.5 -114.5t-162.5 -51.5q-92 0 -128 52 t-25 114q0 10 12 10h67q8 0 9 -10q-6 -33 15 -60.5t62 -27.5q49 0 81 27.5t38 60.5q6 29 -2 48t-23.5 30.5t-35 16.5t-35.5 5q-27 0 -31 6l-14 17q-6 8 -4 14t6 10l111 74q4 4 5 11.5t-10 7.5q-156 0 -261 56t-163.5 155.5t-73 235.5z" />
<glyph unicode="&#xc8;" horiz-adv-x="1294" d="M66 10l251 1422q0 10 13 10h985q8 0 8 -10l-29 -154q0 -10 -10 -10h-790q-12 0 -13 -11l-73 -417q-4 -10 8 -11h706q12 0 8 -10l-26 -153q-4 -10 -12 -11h-707q-8 0 -12 -10l-82 -461q0 -10 8 -10h791q10 0 10 -10l-29 -154q0 -10 -12 -10h-985q-8 0 -8 10zM676 1824 q-2 6 3.5 10.5t11.5 4.5h178q16 0 16 -15l53 -206q2 -6 -3 -10.5t-11 -4.5h-117q-14 0 -18 15z" />
<glyph unicode="&#xc9;" horiz-adv-x="1294" d="M66 10l251 1422q0 10 13 10h985q8 0 8 -10l-29 -154q0 -10 -10 -10h-790q-12 0 -13 -11l-73 -417q-4 -10 8 -11h706q12 0 8 -10l-26 -153q-4 -10 -12 -11h-707q-8 0 -12 -10l-82 -461q0 -10 8 -10h791q10 0 10 -10l-29 -154q0 -10 -12 -10h-985q-8 0 -8 10zM723 1618 l122 206l9.5 9.5t15.5 5.5h178q16 0 6 -15l-182 -206q-4 -4 -11 -9.5t-16 -5.5h-116q-16 0 -6 15z" />
<glyph unicode="&#xca;" horiz-adv-x="1294" d="M66 10l251 1422q0 10 13 10h985q8 0 8 -10l-29 -154q0 -10 -10 -10h-790q-12 0 -13 -11l-73 -417q-4 -10 8 -11h706q12 0 8 -10l-26 -153q-4 -10 -12 -11h-707q-8 0 -12 -10l-82 -461q0 -10 8 -10h791q10 0 10 -10l-29 -154q0 -10 -12 -10h-985q-8 0 -8 10zM635 1618 l126 213q6 8 13 8h229q10 0 12 -8l52 -213q2 -6 -3.5 -10.5t-11.5 -4.5h-118q-8 0 -15 8l-45 84q-8 18 -22 0l-74 -84q-4 -6 -9 -7t-10 -1h-118q-16 0 -6 15z" />
<glyph unicode="&#xcb;" horiz-adv-x="1294" d="M66 10l251 1422q0 10 13 10h985q8 0 8 -10l-29 -154q0 -10 -10 -10h-790q-12 0 -13 -11l-73 -417q-4 -10 8 -11h706q12 0 8 -10l-26 -153q-4 -10 -12 -11h-707q-8 0 -12 -10l-82 -461q0 -10 8 -10h791q10 0 10 -10l-29 -154q0 -10 -12 -10h-985q-8 0 -8 10zM487 1614 l39 215q0 10 12 10h215q8 0 8 -10l-38 -215q0 -10 -11 -10h-215q-10 0 -10 10zM987 1614l39 215q0 10 12 10h215q8 0 8 -10l-39 -215q0 -10 -10 -10h-215q-10 0 -10 10z" />
<glyph unicode="&#xcc;" horiz-adv-x="524" d="M66 10l251 1422q0 10 13 10h174q8 0 8 -10l-252 -1422q0 -10 -12 -10h-174q-8 0 -8 10zM231 1824q-2 6 3.5 10.5t11.5 4.5h178q16 0 16 -15l53 -206q2 -6 -3 -10.5t-11 -4.5h-117q-14 0 -18 15z" />
<glyph unicode="&#xcd;" horiz-adv-x="524" d="M66 10l251 1422q0 10 13 10h174q8 0 8 -10l-252 -1422q0 -10 -12 -10h-174q-8 0 -8 10zM371 1618l122 206l9.5 9.5t15.5 5.5h178q16 0 6 -15l-182 -206q-4 -4 -11 -9.5t-16 -5.5h-116q-16 0 -6 15z" />
<glyph unicode="&#xce;" horiz-adv-x="524" d="M66 10l251 1422q0 10 13 10h174q8 0 8 -10l-252 -1422q0 -10 -12 -10h-174q-8 0 -8 10zM232 1618l126 213q6 8 13 8h229q10 0 12 -8l52 -213q2 -6 -3.5 -10.5t-11.5 -4.5h-118q-8 0 -15 8l-45 84q-8 18 -22 0l-74 -84q-4 -6 -9 -7t-10 -1h-118q-16 0 -6 15z" />
<glyph unicode="&#xcf;" horiz-adv-x="524" d="M66 10l251 1422q0 10 13 10h174q8 0 8 -10l-252 -1422q0 -10 -12 -10h-174q-8 0 -8 10zM82 1614l39 215q0 10 12 10h215q8 0 8 -10l-38 -215q0 -10 -11 -10h-215q-10 0 -10 10zM582 1614l39 215q0 10 12 10h215q8 0 8 -10l-39 -215q0 -10 -10 -10h-215q-10 0 -10 10z" />
<glyph unicode="&#xd0;" horiz-adv-x="1476" d="M72 627l28 153q0 10 13 11h110q10 0 10 10l113 631q0 10 12 10h529q160 0 270.5 -55.5t173 -152.5t78.5 -231.5t-12 -295.5q-29 -164 -91.5 -294t-158.5 -222.5t-225 -141.5t-291 -49h-529q-8 0 -8 10l107 596q0 10 -8 10h-111q-10 0 -10 11zM319 184q0 -10 9 -10h334 q207 0 345 135t185 398q23 129 11.5 232t-54.5 176t-117 113t-176 40h-334q-12 0 -12 -11l-82 -456q0 -10 10 -10h316q8 0 8 -11l-29 -153q0 -10 -10 -11h-315q-12 0 -13 -10z" />
<glyph unicode="&#xd1;" horiz-adv-x="1460" d="M66 10l251 1422q0 10 13 10h303q6 0 12 -10l404 -1229q4 -10 11 -9t9 11l217 1227q0 10 12 10h175q8 0 8 -10l-252 -1422q0 -10 -12 -10h-302q-8 0 -14 10l-403 1231q-2 6 -10.5 6t-10.5 -10l-217 -1227q0 -10 -12 -10h-174q-8 0 -8 10zM624 1625l9 47q6 27 21 57.5 t44 57t72 44t104 17.5q45 0 76 -14.5t53.5 -33t38.5 -32.5t33 -14q6 0 17.5 1t23.5 8t23.5 24.5t17.5 50.5q0 10 12 10h123q8 0 8 -10l-10 -50q-4 -27 -19.5 -57.5t-45 -56t-72.5 -43t-103 -17.5q-41 0 -70.5 14.5t-53 33t-41 33t-35.5 14.5q-6 0 -17.5 -1.5t-24 -8.5 t-23.5 -24.5t-17 -49.5q0 -10 -13 -11h-122q-8 0 -9 11z" />
<glyph unicode="&#xd2;" horiz-adv-x="1499" d="M118.5 421q-16.5 136 12.5 300q29 162 93.5 298t162.5 234.5t228 153.5t292 55t273.5 -55t175 -153.5t80 -234.5t-12.5 -298q-29 -164 -93 -300t-162.5 -234.5t-228.5 -152.5t-292 -54t-273.5 54t-175 152.5t-80 234.5zM336 721q-47 -266 40 -416.5t302 -150.5 t355.5 150.5t187.5 416.5q45 266 -42 416.5t-302 150.5q-217 0 -355.5 -149.5t-185.5 -417.5zM819 1824q-2 6 3.5 10.5t11.5 4.5h178q16 0 16 -15l53 -206q2 -6 -3 -10.5t-11 -4.5h-117q-14 0 -18 15z" />
<glyph unicode="&#xd3;" horiz-adv-x="1499" d="M118.5 421q-16.5 136 12.5 300q29 162 93.5 298t162.5 234.5t228 153.5t292 55t273.5 -55t175 -153.5t80 -234.5t-12.5 -298q-29 -164 -93 -300t-162.5 -234.5t-228.5 -152.5t-292 -54t-273.5 54t-175 152.5t-80 234.5zM336 721q-47 -266 40 -416.5t302 -150.5 t355.5 150.5t187.5 416.5q45 266 -42 416.5t-302 150.5q-217 0 -355.5 -149.5t-185.5 -417.5zM867 1618l122 206l9.5 9.5t15.5 5.5h178q16 0 6 -15l-182 -206q-4 -4 -11 -9.5t-16 -5.5h-116q-16 0 -6 15z" />
<glyph unicode="&#xd4;" horiz-adv-x="1499" d="M118.5 421q-16.5 136 12.5 300q29 162 93.5 298t162.5 234.5t228 153.5t292 55t273.5 -55t175 -153.5t80 -234.5t-12.5 -298q-29 -164 -93 -300t-162.5 -234.5t-228.5 -152.5t-292 -54t-273.5 54t-175 152.5t-80 234.5zM336 721q-47 -266 40 -416.5t302 -150.5 t355.5 150.5t187.5 416.5q45 266 -42 416.5t-302 150.5q-217 0 -355.5 -149.5t-185.5 -417.5zM779 1618l126 213q6 8 13 8h229q10 0 12 -8l52 -213q2 -6 -3.5 -10.5t-11.5 -4.5h-118q-8 0 -15 8l-45 84q-8 18 -22 0l-74 -84q-4 -6 -9 -7t-10 -1h-118q-16 0 -6 15z" />
<glyph unicode="&#xd5;" horiz-adv-x="1499" d="M118.5 421q-16.5 136 12.5 300q29 162 93.5 298t162.5 234.5t228 153.5t292 55t273.5 -55t175 -153.5t80 -234.5t-12.5 -298q-29 -164 -93 -300t-162.5 -234.5t-228.5 -152.5t-292 -54t-273.5 54t-175 152.5t-80 234.5zM336 721q-47 -266 40 -416.5t302 -150.5 t355.5 150.5t187.5 416.5q45 266 -42 416.5t-302 150.5q-217 0 -355.5 -149.5t-185.5 -417.5zM653 1614l9 47q6 27 21 57.5t44 57t72 44t104 17.5q45 0 76 -14.5t53.5 -33t38.5 -32.5t33 -14q6 0 17.5 1t23.5 8t23.5 24.5t17.5 50.5q0 10 12 10h123q8 0 8 -10l-10 -50 q-4 -27 -19.5 -57.5t-45 -56t-72.5 -43t-103 -17.5q-41 0 -70.5 14.5t-53 33t-41 33t-35.5 14.5q-6 0 -17.5 -1.5t-24 -8.5t-23.5 -24.5t-17 -49.5q0 -10 -13 -11h-122q-8 0 -9 11z" />
<glyph unicode="&#xd6;" horiz-adv-x="1499" d="M118.5 421q-16.5 136 12.5 300q29 162 93.5 298t162.5 234.5t228 153.5t292 55t273.5 -55t175 -153.5t80 -234.5t-12.5 -298q-29 -164 -93 -300t-162.5 -234.5t-228.5 -152.5t-292 -54t-273.5 54t-175 152.5t-80 234.5zM336 721q-47 -266 40 -416.5t302 -150.5 t355.5 150.5t187.5 416.5q45 266 -42 416.5t-302 150.5q-217 0 -355.5 -149.5t-185.5 -417.5zM610 1614l39 215q0 10 12 10h215q8 0 8 -10l-38 -215q0 -10 -11 -10h-215q-10 0 -10 10zM1110 1614l39 215q0 10 12 10h215q8 0 8 -10l-39 -215q0 -10 -10 -10h-215q-10 0 -10 10 z" />
<glyph unicode="&#xd7;" horiz-adv-x="1196" d="M27 102q0 12 2 15l460 395q6 4 7 16l-326 390v7t4 7l113 94q4 4 8 4t6 -4l324 -391q4 -10 12 2l467 397q14 4 14 0l86 -100q2 -10 -4 -16l-467 -398q-12 -8 -2 -14l330 -397v-7.5t-4 -7.5l-113 -96q-8 -8 -14 0l-328 399q-4 4 -14 0l-461 -395q-10 -8 -14 0z" />
<glyph unicode="&#xd8;" horiz-adv-x="1499" d="M31 156q-6 6 2 14l110 94q10 6 9 17q-33 90 -38 200.5t17 239.5q29 162 93.5 298t162.5 234.5t228 153.5t292 55q147 0 252 -46t170 -130q8 -8 17 0l94 80q6 6 14 0l66 -80q6 -6 -2 -14l-113 -96q-6 -4 -6 -15q35 -92 41 -201.5t-17 -238.5q-29 -164 -93 -300 t-162.5 -234.5t-228.5 -152.5t-292 -54q-147 0 -251.5 44t-170.5 128q-12 12 -22 2l-92 -78q-8 -8 -15 0zM326 438q4 -14 18 -4l821 699q10 8 4 18q-45 66 -117.5 101.5t-174.5 35.5q-217 0 -355.5 -149.5t-185.5 -417.5q-29 -158 -10 -283zM383 293q45 -70 117 -104.5 t178 -34.5q215 0 355.5 150.5t187.5 416.5q14 82 16 151.5t-8 131.5q-4 18 -21 6l-823 -701q-10 -10 -2 -16z" />
<glyph unicode="&#xd9;" horiz-adv-x="1312" d="M131 489l166 943q4 10 12 10h174q12 0 9 -10l-166 -943q-12 -66 2 -126t50 -107t89 -74.5t119 -27.5t128 27.5t113.5 74.5t86 107.5t47.5 125.5l165 943q4 10 13 10h174q12 0 8 -10l-166 -943q-18 -106 -74.5 -199t-137.5 -162t-181 -108.5t-207 -39.5 q-106 0 -193.5 39.5t-144.5 108.5t-80.5 162t-5.5 199zM684 1824q-2 6 3.5 10.5t11.5 4.5h178q16 0 16 -15l53 -206q2 -6 -3 -10.5t-11 -4.5h-117q-14 0 -18 15z" />
<glyph unicode="&#xda;" horiz-adv-x="1312" d="M131 489l166 943q4 10 12 10h174q12 0 9 -10l-166 -943q-12 -66 2 -126t50 -107t89 -74.5t119 -27.5t128 27.5t113.5 74.5t86 107.5t47.5 125.5l165 943q4 10 13 10h174q12 0 8 -10l-166 -943q-18 -106 -74.5 -199t-137.5 -162t-181 -108.5t-207 -39.5 q-106 0 -193.5 39.5t-144.5 108.5t-80.5 162t-5.5 199zM732 1618l122 206l9.5 9.5t15.5 5.5h178q16 0 6 -15l-182 -206q-4 -4 -11 -9.5t-16 -5.5h-116q-16 0 -6 15z" />
<glyph unicode="&#xdb;" horiz-adv-x="1312" d="M131 489l166 943q4 10 12 10h174q12 0 9 -10l-166 -943q-12 -66 2 -126t50 -107t89 -74.5t119 -27.5t128 27.5t113.5 74.5t86 107.5t47.5 125.5l165 943q4 10 13 10h174q12 0 8 -10l-166 -943q-18 -106 -74.5 -199t-137.5 -162t-181 -108.5t-207 -39.5 q-106 0 -193.5 39.5t-144.5 108.5t-80.5 162t-5.5 199zM623 1618l126 213q6 8 13 8h229q10 0 12 -8l52 -213q2 -6 -3.5 -10.5t-11.5 -4.5h-118q-8 0 -15 8l-45 84q-8 18 -22 0l-74 -84q-4 -6 -9 -7t-10 -1h-118q-16 0 -6 15z" />
<glyph unicode="&#xdc;" horiz-adv-x="1312" d="M131 489l166 943q4 10 12 10h174q12 0 9 -10l-166 -943q-12 -66 2 -126t50 -107t89 -74.5t119 -27.5t128 27.5t113.5 74.5t86 107.5t47.5 125.5l165 943q4 10 13 10h174q12 0 8 -10l-166 -943q-18 -106 -74.5 -199t-137.5 -162t-181 -108.5t-207 -39.5 q-106 0 -193.5 39.5t-144.5 108.5t-80.5 162t-5.5 199zM455 1614l39 215q0 10 12 10h215q8 0 8 -10l-38 -215q0 -10 -11 -10h-215q-10 0 -10 10zM955 1614l39 215q0 10 12 10h215q8 0 8 -10l-39 -215q0 -10 -10 -10h-215q-10 0 -10 10z" />
<glyph unicode="&#xdd;" horiz-adv-x="1390" d="M274 1432q-6 10 9 10h206q8 0 15 -10l246 -584q10 -14 20 0l457 584q8 10 22 10h203q10 0 4 -10l-627 -791q-10 -12 -10 -20l-108 -611q0 -10 -13 -10h-174q-8 0 -8 10l109 611q0 4 -7 20zM750 1618l122 206l9.5 9.5t15.5 5.5h178q16 0 6 -15l-182 -206q-4 -4 -11 -9.5 t-16 -5.5h-116q-16 0 -6 15z" />
<glyph unicode="&#xde;" horiz-adv-x="1314" d="M86 10l252 1422q0 10 12 10h174q8 0 8 -10l-51 -293q-4 -10 8 -11h465q84 0 150.5 -32.5t109.5 -88t61.5 -129t4.5 -157.5q-16 -84 -60 -158t-107.5 -129t-141.5 -88t-162 -33h-465q-10 0 -10 -10l-53 -293q0 -10 -13 -10h-174q-8 0 -8 10zM367 498q0 -10 8 -11h465 q39 0 80 19.5t75.5 52.5t59.5 75t35 87q6 45 -3.5 87t-33 74.5t-57 52t-72.5 19.5h-465q-12 0 -13 -10z" />
<glyph unicode="&#xdf;" horiz-adv-x="1183" d="M59 10l183 1034q14 80 56 155t106.5 133.5t149.5 94t187 35.5q117 0 200 -30.5t134 -86t67.5 -129t2.5 -159.5q-16 -98 -86 -183.5t-166 -128.5q-8 -4 -8 -8t4 -6q33 -10 69.5 -37.5t66.5 -70.5t45 -98.5t3 -118.5q-35 -201 -174 -313.5t-391 -112.5h-59q-12 0 -9 10 l27 151q0 10 12 11h60q147 0 233 63.5t109 190.5q12 61 -6.5 107t-53.5 77t-81 46t-89 15h-37q-10 0 -10 11l27 151q4 10 12 10h37q43 0 89 13.5t85 41t68.5 71.5t40.5 108q12 61 -3.5 105t-50.5 72t-86 41t-112 13q-63 0 -111.5 -23.5t-82.5 -59.5t-54.5 -79t-26.5 -82 l-182 -1034q0 -10 -12 -10h-174q-8 0 -9 10z" />
<glyph unicode="&#xe0;" horiz-adv-x="1183" d="M82 307q12 68 50 124t100.5 98t151.5 65.5t202 23.5h229q51 0 63.5 17.5t16.5 46.5q6 31 5 66.5t-22.5 65.5t-70.5 49.5t-141 19.5q-133 0 -201 -54.5t-82 -132.5q0 -10 -12 -10h-176q-8 0 -9 10q16 90 65.5 158t119 113t154.5 67.5t171 22.5q213 0 319.5 -95.5 t74.5 -283.5l-119 -668q0 -10 -13 -10h-153q-4 0 -8 10l-6 84q0 8 -5.5 9t-9.5 -3q-23 -18 -60.5 -39.5t-83.5 -40t-97.5 -29.5t-100.5 -11q-207 0 -293 91t-59 236zM276 307q-6 -29 0.5 -55.5t27 -49t59 -35.5t100.5 -13q92 0 160.5 24.5t115.5 64.5t74 88t37 95l4 29 q2 4 -1 7t-7 3h-287q-84 -4 -136 -19.5t-83 -37t-45 -48t-19 -53.5zM639 1427q-2 6 3.5 10.5t11.5 4.5h178q16 0 16 -15l53 -206q2 -6 -3 -10.5t-11 -4.5h-117q-14 0 -18 15z" />
<glyph unicode="&#xe1;" horiz-adv-x="1183" d="M82 307q12 68 50 124t100.5 98t151.5 65.5t202 23.5h229q51 0 63.5 17.5t16.5 46.5q6 31 5 66.5t-22.5 65.5t-70.5 49.5t-141 19.5q-133 0 -201 -54.5t-82 -132.5q0 -10 -12 -10h-176q-8 0 -9 10q16 90 65.5 158t119 113t154.5 67.5t171 22.5q213 0 319.5 -95.5 t74.5 -283.5l-119 -668q0 -10 -13 -10h-153q-4 0 -8 10l-6 84q0 8 -5.5 9t-9.5 -3q-23 -18 -60.5 -39.5t-83.5 -40t-97.5 -29.5t-100.5 -11q-207 0 -293 91t-59 236zM276 307q-6 -29 0.5 -55.5t27 -49t59 -35.5t100.5 -13q92 0 160.5 24.5t115.5 64.5t74 88t37 95l4 29 q2 4 -1 7t-7 3h-287q-84 -4 -136 -19.5t-83 -37t-45 -48t-19 -53.5zM605 1221l122 206l9.5 9.5t15.5 5.5h178q16 0 6 -15l-182 -206q-4 -4 -11 -9.5t-16 -5.5h-116q-16 0 -6 15z" />
<glyph unicode="&#xe2;" horiz-adv-x="1183" d="M82 307q12 68 50 124t100.5 98t151.5 65.5t202 23.5h229q51 0 63.5 17.5t16.5 46.5q6 31 5 66.5t-22.5 65.5t-70.5 49.5t-141 19.5q-133 0 -201 -54.5t-82 -132.5q0 -10 -12 -10h-176q-8 0 -9 10q16 90 65.5 158t119 113t154.5 67.5t171 22.5q213 0 319.5 -95.5 t74.5 -283.5l-119 -668q0 -10 -13 -10h-153q-4 0 -8 10l-6 84q0 8 -5.5 9t-9.5 -3q-23 -18 -60.5 -39.5t-83.5 -40t-97.5 -29.5t-100.5 -11q-207 0 -293 91t-59 236zM276 307q-6 -29 0.5 -55.5t27 -49t59 -35.5t100.5 -13q92 0 160.5 24.5t115.5 64.5t74 88t37 95l4 29 q2 4 -1 7t-7 3h-287q-84 -4 -136 -19.5t-83 -37t-45 -48t-19 -53.5zM558 1221l126 213q6 8 13 8h229q10 0 12 -8l52 -213q2 -6 -3.5 -10.5t-11.5 -4.5h-118q-8 0 -15 8l-45 84q-8 18 -22 0l-74 -84q-4 -6 -9 -7t-10 -1h-118q-16 0 -6 15z" />
<glyph unicode="&#xe3;" horiz-adv-x="1183" d="M82 307q12 68 50 124t100.5 98t151.5 65.5t202 23.5h229q51 0 63.5 17.5t16.5 46.5q6 31 5 66.5t-22.5 65.5t-70.5 49.5t-141 19.5q-133 0 -201 -54.5t-82 -132.5q0 -10 -12 -10h-176q-8 0 -9 10q16 90 65.5 158t119 113t154.5 67.5t171 22.5q213 0 319.5 -95.5 t74.5 -283.5l-119 -668q0 -10 -13 -10h-153q-4 0 -8 10l-6 84q0 8 -5.5 9t-9.5 -3q-23 -18 -60.5 -39.5t-83.5 -40t-97.5 -29.5t-100.5 -11q-207 0 -293 91t-59 236zM276 307q-6 -29 0.5 -55.5t27 -49t59 -35.5t100.5 -13q92 0 160.5 24.5t115.5 64.5t74 88t37 95l4 29 q2 4 -1 7t-7 3h-287q-84 -4 -136 -19.5t-83 -37t-45 -48t-19 -53.5zM432 1219l9 47q6 27 21 57.5t44 57t72 44t104 17.5q45 0 76 -14.5t53.5 -33t38.5 -32.5t33 -14q6 0 17.5 1t23.5 8t23.5 24.5t17.5 50.5q0 10 12 10h123q8 0 8 -10l-10 -50q-4 -27 -19.5 -57.5t-45 -56 t-72.5 -43t-103 -17.5q-41 0 -70.5 14.5t-53 33t-41 33t-35.5 14.5q-6 0 -17.5 -1.5t-24 -8.5t-23.5 -24.5t-17 -49.5q0 -10 -13 -11h-122q-8 0 -9 11z" />
<glyph unicode="&#xe4;" horiz-adv-x="1183" d="M82 307q12 68 50 124t100.5 98t151.5 65.5t202 23.5h229q51 0 63.5 17.5t16.5 46.5q6 31 5 66.5t-22.5 65.5t-70.5 49.5t-141 19.5q-133 0 -201 -54.5t-82 -132.5q0 -10 -12 -10h-176q-8 0 -9 10q16 90 65.5 158t119 113t154.5 67.5t171 22.5q213 0 319.5 -95.5 t74.5 -283.5l-119 -668q0 -10 -13 -10h-153q-4 0 -8 10l-6 84q0 8 -5.5 9t-9.5 -3q-23 -18 -60.5 -39.5t-83.5 -40t-97.5 -29.5t-100.5 -11q-207 0 -293 91t-59 236zM276 307q-6 -29 0.5 -55.5t27 -49t59 -35.5t100.5 -13q92 0 160.5 24.5t115.5 64.5t74 88t37 95l4 29 q2 4 -1 7t-7 3h-287q-84 -4 -136 -19.5t-83 -37t-45 -48t-19 -53.5zM423 1219l39 213q0 10 13 10h215q8 0 8 -10l-39 -213q0 -10 -12 -11h-215q-8 0 -9 11zM923 1219l39 213q0 10 12 10h215q8 0 9 -10l-39 -213q0 -10 -13 -11h-215q-8 0 -8 11z" />
<glyph unicode="&#xe5;" horiz-adv-x="1183" d="M82 307q12 68 50 124t100.5 98t151.5 65.5t202 23.5h229q51 0 63.5 17.5t16.5 46.5q6 31 5 66.5t-22.5 65.5t-70.5 49.5t-141 19.5q-133 0 -201 -54.5t-82 -132.5q0 -10 -12 -10h-176q-8 0 -9 10q16 90 65.5 158t119 113t154.5 67.5t171 22.5q213 0 319.5 -95.5 t74.5 -283.5l-119 -668q0 -10 -13 -10h-153q-4 0 -8 10l-6 84q0 8 -5.5 9t-9.5 -3q-23 -18 -60.5 -39.5t-83.5 -40t-97.5 -29.5t-100.5 -11q-207 0 -293 91t-59 236zM276 307q-6 -29 0.5 -55.5t27 -49t59 -35.5t100.5 -13q92 0 160.5 24.5t115.5 64.5t74 88t37 95l4 29 q2 4 -1 7t-7 3h-287q-84 -4 -136 -19.5t-83 -37t-45 -48t-19 -53.5zM612 1280q6 37 25.5 69.5t48 57.5t63.5 39t72 14q74 0 117.5 -53t31.5 -127q-6 -37 -26.5 -69.5t-50 -56.5t-64.5 -38t-72 -14q-74 0 -116.5 52t-28.5 126zM698 1280q-8 -39 14.5 -65.5t61.5 -26.5 t69.5 26.5t38.5 65.5q6 39 -15.5 65.5t-59.5 26.5q-39 0 -71 -26.5t-38 -65.5z" />
<glyph unicode="&#xe6;" horiz-adv-x="1951" d="M82 307q12 68 49 124t99.5 98t149.5 65.5t198 23.5h108q160 0 186 21q14 10 17.5 21.5t5.5 21.5q6 31 5 66.5t-22.5 65.5t-70.5 49.5t-141 19.5q-133 0 -201 -54.5t-82 -132.5q0 -10 -12 -10h-176q-8 0 -9 10q16 90 65.5 158t119 113t154.5 67.5t171 22.5q254 0 353 -133 q6 -12 18 -2q74 63 169 99t210 36q119 0 206 -39t138 -110.5t66.5 -171t-5.5 -218.5q-6 -33 -16 -59q-6 -10 -12 -10h-764q-12 0 -12 -11q-10 -55 0 -107t40.5 -91t81 -62.5t117.5 -23.5q109 0 171.5 41t105.5 102q4 10 16 10h193q10 0 8 -10q-68 -152 -209 -234.5 t-316 -82.5q-131 0 -220 47t-138 135q-8 16 -25 0q-41 -39 -86 -73t-97 -58.5t-112.5 -37.5t-132.5 -13q-207 0 -298 91t-64 236zM276 307q-6 -29 0.5 -55.5t27 -49t59 -35.5t100.5 -13q92 0 160.5 24.5t115.5 64.5t74 88t37 95l4 29q2 4 -1 7t-7 3h-287q-84 -4 -136 -19.5 t-83 -37t-45 -48t-19 -53.5zM1077 612q-2 -4 1 -7t7 -3h557q9 0 13 10q8 43 0 91.5t-36 88t-78 65.5t-126 26q-74 0 -134 -29t-103 -71t-69 -88t-32 -83z" />
<glyph unicode="&#xe7;" horiz-adv-x="1161" d="M125 300q-16 99 6 218q20 121 71.5 220.5t128.5 170t178 109.5t222 39q197 0 304.5 -95.5t119.5 -265.5q0 -10 -12 -10h-182q-10 0 -11 10q-39 186 -250 187q-74 0 -136 -27t-110 -76t-81 -115.5t-47 -146.5t-5 -146.5t40.5 -115.5t84 -75.5t125.5 -26.5q104 0 185.5 47 t130.5 139q6 10 14 10h182q12 0 9 -10q-61 -141 -171 -232.5t-257 -117.5l-129 -82q-4 -4 -4.5 -10.5t8.5 -6.5q27 0 53 -8t46.5 -26.5t31 -47t4.5 -69.5q-12 -63 -73.5 -114.5t-162.5 -51.5q-92 0 -128 52t-23 114q0 10 10 10h68q10 0 10 -10q-6 -33 15.5 -60.5t62.5 -27.5 q49 0 80.5 27.5t37.5 60.5q4 29 -4 48t-22.5 30.5t-33.5 16.5t-36 5q-27 0 -31 6l-14 17q-6 8 -3 15t7 11l113 76q4 4 4 9.5t-8 5.5h-8q-119 0 -205 39.5t-137.5 110.5t-67.5 170z" />
<glyph unicode="&#xe8;" horiz-adv-x="1165" d="M105 299q-17 98 5 219q20 121 70.5 220.5t127.5 170t176 109.5t218 39t206 -39t138 -110.5t66.5 -171t-4.5 -218.5q-6 -33 -17 -59q-6 -10 -12 -10h-764q-12 0 -12 -11q-10 -55 0 -107t40.5 -91t81 -62.5t117.5 -23.5q111 0 177.5 41t109.5 102q4 10 16 10h183 q10 0 8 -10q-68 -152 -209 -234.5t-315 -82.5q-115 0 -200 38.5t-137.5 110.5t-69.5 170zM333 612q-2 -4 1 -7t8 -3h557q8 0 12 10q8 43 0 91.5t-36 88t-78 65.5t-126 26q-74 0 -134 -29t-103 -71t-68.5 -88t-32.5 -83zM643 1427q-2 6 3.5 10.5t11.5 4.5h178q16 0 16 -15 l53 -206q2 -6 -3 -10.5t-11 -4.5h-117q-14 0 -18 15z" />
<glyph unicode="&#xe9;" horiz-adv-x="1165" d="M105 299q-17 98 5 219q20 121 70.5 220.5t127.5 170t176 109.5t218 39t206 -39t138 -110.5t66.5 -171t-4.5 -218.5q-6 -33 -17 -59q-6 -10 -12 -10h-764q-12 0 -12 -11q-10 -55 0 -107t40.5 -91t81 -62.5t117.5 -23.5q111 0 177.5 41t109.5 102q4 10 16 10h183 q10 0 8 -10q-68 -152 -209 -234.5t-315 -82.5q-115 0 -200 38.5t-137.5 110.5t-69.5 170zM333 612q-2 -4 1 -7t8 -3h557q8 0 12 10q8 43 0 91.5t-36 88t-78 65.5t-126 26q-74 0 -134 -29t-103 -71t-68.5 -88t-32.5 -83zM691 1221l122 206l9.5 9.5t15.5 5.5h178q16 0 6 -15 l-182 -206q-4 -4 -11 -9.5t-16 -5.5h-116q-16 0 -6 15z" />
<glyph unicode="&#xea;" horiz-adv-x="1165" d="M105 299q-17 98 5 219q20 121 70.5 220.5t127.5 170t176 109.5t218 39t206 -39t138 -110.5t66.5 -171t-4.5 -218.5q-6 -33 -17 -59q-6 -10 -12 -10h-764q-12 0 -12 -11q-10 -55 0 -107t40.5 -91t81 -62.5t117.5 -23.5q111 0 177.5 41t109.5 102q4 10 16 10h183 q10 0 8 -10q-68 -152 -209 -234.5t-315 -82.5q-115 0 -200 38.5t-137.5 110.5t-69.5 170zM333 612q-2 -4 1 -7t8 -3h557q8 0 12 10q8 43 0 91.5t-36 88t-78 65.5t-126 26q-74 0 -134 -29t-103 -71t-68.5 -88t-32.5 -83zM562 1221l126 213q6 8 13 8h229q10 0 12 -8l52 -213 q2 -6 -3.5 -10.5t-11.5 -4.5h-118q-8 0 -15 8l-45 84q-8 18 -22 0l-74 -84q-4 -6 -9 -7t-10 -1h-118q-16 0 -6 15z" />
<glyph unicode="&#xeb;" horiz-adv-x="1165" d="M105 299q-17 98 5 219q20 121 70.5 220.5t127.5 170t176 109.5t218 39t206 -39t138 -110.5t66.5 -171t-4.5 -218.5q-6 -33 -17 -59q-6 -10 -12 -10h-764q-12 0 -12 -11q-10 -55 0 -107t40.5 -91t81 -62.5t117.5 -23.5q111 0 177.5 41t109.5 102q4 10 16 10h183 q10 0 8 -10q-68 -152 -209 -234.5t-315 -82.5q-115 0 -200 38.5t-137.5 110.5t-69.5 170zM333 612q-2 -4 1 -7t8 -3h557q8 0 12 10q8 43 0 91.5t-36 88t-78 65.5t-126 26q-74 0 -134 -29t-103 -71t-68.5 -88t-32.5 -83zM387 1219l39 213q0 10 13 10h215q8 0 8 -10l-39 -213 q0 -10 -12 -11h-215q-8 0 -9 11zM887 1219l39 213q0 10 12 10h215q8 0 9 -10l-39 -213q0 -10 -13 -11h-215q-8 0 -8 11z" />
<glyph unicode="&#xec;" horiz-adv-x="536" d="M84 10l180 1016q0 10 10 10h175q10 0 10 -10l-180 -1016q0 -10 -13 -10h-174q-8 0 -8 10zM217 1427q-2 6 3.5 10.5t11.5 4.5h178q16 0 16 -15l53 -206q2 -6 -3 -10.5t-11 -4.5h-117q-14 0 -18 15z" />
<glyph unicode="&#xed;" horiz-adv-x="536" d="M84 10l180 1016q0 10 10 10h175q10 0 10 -10l-180 -1016q0 -10 -13 -10h-174q-8 0 -8 10zM310 1221l122 206l9.5 9.5t15.5 5.5h178q16 0 6 -15l-182 -206q-4 -4 -11 -9.5t-16 -5.5h-116q-16 0 -6 15z" />
<glyph unicode="&#xee;" horiz-adv-x="536" d="M96 10l180 1016q0 10 10 10h175q10 0 10 -10l-180 -1016q0 -10 -13 -10h-174q-8 0 -8 10zM187 1221l126 213q6 8 13 8h229q10 0 12 -8l52 -213q2 -6 -3.5 -10.5t-11.5 -4.5h-118q-8 0 -15 8l-45 84q-8 18 -22 0l-74 -84q-4 -6 -9 -7t-10 -1h-118q-16 0 -6 15z" />
<glyph unicode="&#xef;" horiz-adv-x="536" d="M22 1219l39 213q0 10 13 10h215q8 0 8 -10l-39 -213q0 -10 -12 -11h-215q-8 0 -9 11zM84 10l180 1016q0 10 10 10h175q10 0 10 -10l-180 -1016q0 -10 -13 -10h-174q-8 0 -8 10zM522 1219l39 213q0 10 12 10h215q8 0 9 -10l-39 -213q0 -10 -13 -11h-215q-8 0 -8 11z" />
<glyph unicode="&#xf0;" horiz-adv-x="1245" d="M111.5 299q-17.5 98 5.5 219q20 121 71.5 220.5t129 170t179 109.5t222.5 39q41 0 72 -6q10 -2 13 5t1 11l-39 94q-4 8 -16 4l-142 -67q-12 -8 -12 4l-37 98q-4 10 6 14l140 68q10 6 8 16l-49 134q-2 10 12 10h180q10 0 12 -10l19 -52q2 -12 14 -4l129 64q8 6 17 -2 l32 -101q4 -4 -6 -14l-127 -61q-8 -2 -8 -13l164 -407q29 -68 38 -149t-7 -175q-23 -121 -74 -219t-130 -170t-180.5 -110.5t-220.5 -38.5q-121 0 -208 38.5t-139 110.5t-69.5 170zM306 371.5q9 -66.5 41 -115.5t85 -75.5t127 -26.5t136.5 26.5t111.5 75.5t83 115.5 t48 146.5t4 146.5t-42 115.5t-85 76t-127 27t-136.5 -27t-111.5 -76t-81.5 -115.5t-47.5 -146.5q-14 -80 -5 -146.5z" />
<glyph unicode="&#xf1;" horiz-adv-x="1193" d="M78 10l178 1016q4 10 12 10h154q8 0 8 -10l4 -92q2 -10 10.5 -8t12.5 6q41 45 113.5 85t177.5 40q111 0 187.5 -38t121.5 -103.5t57 -153.5t-6 -189l-98 -563q-4 -10 -13 -10h-174q-12 0 -8 10l98 563q10 57 6 113.5t-28.5 99.5t-71.5 70t-123 27q-66 0 -120 -26t-96 -69 t-70.5 -99t-38.5 -116l-99 -563q-4 -10 -12 -10h-174q-12 0 -8 10zM438 1219l9 47q6 27 21 57.5t44 57t72 44t104 17.5q45 0 76 -14.5t53.5 -33t38.5 -32.5t33 -14q6 0 17.5 1t23.5 8t23.5 24.5t17.5 50.5q0 10 12 10h123q8 0 8 -10l-10 -50q-4 -27 -19.5 -57.5t-45 -56 t-72.5 -43t-103 -17.5q-41 0 -70.5 14.5t-53 33t-41 33t-35.5 14.5q-6 0 -17.5 -1.5t-24 -8.5t-23.5 -24.5t-17 -49.5q0 -10 -13 -11h-122q-8 0 -9 11z" />
<glyph unicode="&#xf2;" horiz-adv-x="1202" d="M107 299q-17 98 5 219q20 121 71.5 220.5t129.5 170t179 109.5t222 39q119 0 207 -39t140.5 -110.5t69.5 -171t-3 -218.5q-23 -121 -74 -219t-130 -170t-180 -110.5t-220 -38.5q-121 0 -208 38.5t-139.5 110.5t-69.5 170zM302 371.5q9 -66.5 40.5 -115.5t85 -75.5 t127.5 -26.5t136 26.5t111 75.5t83 115.5t48 146.5t4 146.5t-41.5 115.5t-85 76t-126.5 27q-74 0 -136.5 -27t-111.5 -76t-82 -115.5t-47 -146.5t-5 -146.5zM620 1427q-2 6 3.5 10.5t11.5 4.5h178q16 0 16 -15l53 -206q2 -6 -3 -10.5t-11 -4.5h-117q-14 0 -18 15z" />
<glyph unicode="&#xf3;" horiz-adv-x="1202" d="M107 299q-17 98 5 219q20 121 71.5 220.5t129.5 170t179 109.5t222 39q119 0 207 -39t140.5 -110.5t69.5 -171t-3 -218.5q-23 -121 -74 -219t-130 -170t-180 -110.5t-220 -38.5q-121 0 -208 38.5t-139.5 110.5t-69.5 170zM302 371.5q9 -66.5 40.5 -115.5t85 -75.5 t127.5 -26.5t136 26.5t111 75.5t83 115.5t48 146.5t4 146.5t-41.5 115.5t-85 76t-126.5 27q-74 0 -136.5 -27t-111.5 -76t-82 -115.5t-47 -146.5t-5 -146.5zM668 1221l122 206l9.5 9.5t15.5 5.5h178q16 0 6 -15l-182 -206q-4 -4 -11 -9.5t-16 -5.5h-116q-16 0 -6 15z" />
<glyph unicode="&#xf4;" horiz-adv-x="1202" d="M107 299q-17 98 5 219q20 121 71.5 220.5t129.5 170t179 109.5t222 39q119 0 207 -39t140.5 -110.5t69.5 -171t-3 -218.5q-23 -121 -74 -219t-130 -170t-180 -110.5t-220 -38.5q-121 0 -208 38.5t-139.5 110.5t-69.5 170zM302 371.5q9 -66.5 40.5 -115.5t85 -75.5 t127.5 -26.5t136 26.5t111 75.5t83 115.5t48 146.5t4 146.5t-41.5 115.5t-85 76t-126.5 27q-74 0 -136.5 -27t-111.5 -76t-82 -115.5t-47 -146.5t-5 -146.5zM586 1221l126 213q6 8 13 8h229q10 0 12 -8l52 -213q2 -6 -3.5 -10.5t-11.5 -4.5h-118q-8 0 -15 8l-45 84 q-8 18 -22 0l-74 -84q-4 -6 -9 -7t-10 -1h-118q-16 0 -6 15z" />
<glyph unicode="&#xf5;" horiz-adv-x="1202" d="M107 299q-17 98 5 219q20 121 71.5 220.5t129.5 170t179 109.5t222 39q119 0 207 -39t140.5 -110.5t69.5 -171t-3 -218.5q-23 -121 -74 -219t-130 -170t-180 -110.5t-220 -38.5q-121 0 -208 38.5t-139.5 110.5t-69.5 170zM302 371.5q9 -66.5 40.5 -115.5t85 -75.5 t127.5 -26.5t136 26.5t111 75.5t83 115.5t48 146.5t4 146.5t-41.5 115.5t-85 76t-126.5 27q-74 0 -136.5 -27t-111.5 -76t-82 -115.5t-47 -146.5t-5 -146.5zM434 1219l9 47q6 27 21 57.5t44 57t72 44t104 17.5q45 0 76 -14.5t53.5 -33t38.5 -32.5t33 -14q6 0 17.5 1t23.5 8 t23.5 24.5t17.5 50.5q0 10 12 10h123q8 0 8 -10l-10 -50q-4 -27 -19.5 -57.5t-45 -56t-72.5 -43t-103 -17.5q-41 0 -70.5 14.5t-53 33t-41 33t-35.5 14.5q-6 0 -17.5 -1.5t-24 -8.5t-23.5 -24.5t-17 -49.5q0 -10 -13 -11h-122q-8 0 -9 11z" />
<glyph unicode="&#xf6;" horiz-adv-x="1202" d="M107 299q-17 98 5 219q20 121 71.5 220.5t129.5 170t179 109.5t222 39q119 0 207 -39t140.5 -110.5t69.5 -171t-3 -218.5q-23 -121 -74 -219t-130 -170t-180 -110.5t-220 -38.5q-121 0 -208 38.5t-139.5 110.5t-69.5 170zM302 371.5q9 -66.5 40.5 -115.5t85 -75.5 t127.5 -26.5t136 26.5t111 75.5t83 115.5t48 146.5t4 146.5t-41.5 115.5t-85 76t-126.5 27q-74 0 -136.5 -27t-111.5 -76t-82 -115.5t-47 -146.5t-5 -146.5zM426 1219l39 213q0 10 13 10h215q8 0 8 -10l-39 -213q0 -10 -12 -11h-215q-8 0 -9 11zM926 1219l39 213q0 10 12 10 h215q8 0 9 -10l-39 -213q0 -10 -13 -11h-215q-8 0 -8 11z" />
<glyph unicode="&#xf7;" horiz-adv-x="1187" d="M70 436l28 164q0 10 13 10h1016q8 0 8 -10l-29 -164q-4 -10 -12 -10h-1016q-12 0 -8 10zM385 10l46 250q0 10 10 10h246q10 0 10 -10l-45 -250q0 -10 -13 -10h-245q-8 0 -9 10zM521 776l45 250q0 10 10 10h246q10 0 10 -10l-45 -250q-4 -10 -12 -10h-246q-12 0 -8 10z " />
<glyph unicode="&#xf8;" horiz-adv-x="1232" d="M31 84q-4 8 4 14l96 82q8 8 4 19q-55 131 -22 319q20 121 71.5 220.5t129 170t179 109.5t222.5 39q98 0 175 -28t130 -77q10 -8 18 0l92 80q6 6 15 0l65 -80q6 -6 -2 -14l-98 -86q-8 -6 -8 -11t4 -12q25 -66 32 -142.5t-10 -168.5q-23 -121 -73.5 -219t-129.5 -170 t-180.5 -110.5t-220.5 -38.5q-199 0 -305 100q-8 8 -18 0l-88 -76q-10 -8 -15 0zM305 348q2 -8 8 -8t11 4l534 455q14 12 4 22q-72 61 -178 62q-74 0 -136.5 -27t-111.5 -76t-82 -115.5t-47 -146.5q-18 -94 -2 -170zM379 211q63 -57 176 -57q74 0 136.5 26.5t111.5 75.5 t83 115.5t48 146.5q16 94 0 168q0 4 -6 6t-15 -4l-532 -455q-12 -12 -2 -22z" />
<glyph unicode="&#xf9;" horiz-adv-x="1185" d="M124 274q-7 88 9 189l100 563q4 10 13 10h174q12 0 8 -10l-100 -563q-10 -59 -6 -114.5t28.5 -98.5t72.5 -69.5t124 -26.5q63 0 118.5 25.5t97.5 68.5t69.5 99t37.5 116l101 563q4 10 12 10h174q12 0 8 -10l-178 -1016q-4 -10 -12 -10h-154q-8 0 -8 10l-6 92q0 10 -8 8.5 t-13 -6.5q-18 -20 -46.5 -41.5t-66.5 -40t-83 -30.5t-94 -12q-127 0 -206 37.5t-119 103t-47 153.5zM571 1427q-2 6 3.5 10.5t11.5 4.5h178q16 0 16 -15l53 -206q2 -6 -3 -10.5t-11 -4.5h-117q-14 0 -18 15z" />
<glyph unicode="&#xfa;" horiz-adv-x="1185" d="M124 274q-7 88 9 189l100 563q4 10 13 10h174q12 0 8 -10l-100 -563q-10 -59 -6 -114.5t28.5 -98.5t72.5 -69.5t124 -26.5q63 0 118.5 25.5t97.5 68.5t69.5 99t37.5 116l101 563q4 10 12 10h174q12 0 8 -10l-178 -1016q-4 -10 -12 -10h-154q-8 0 -8 10l-6 92q0 10 -8 8.5 t-13 -6.5q-18 -20 -46.5 -41.5t-66.5 -40t-83 -30.5t-94 -12q-127 0 -206 37.5t-119 103t-47 153.5zM599 1221l122 206l9.5 9.5t15.5 5.5h178q16 0 6 -15l-182 -206q-4 -4 -11 -9.5t-16 -5.5h-116q-16 0 -6 15z" />
<glyph unicode="&#xfb;" horiz-adv-x="1185" d="M124 274q-7 88 9 189l100 563q4 10 13 10h174q12 0 8 -10l-100 -563q-10 -59 -6 -114.5t28.5 -98.5t72.5 -69.5t124 -26.5q63 0 118.5 25.5t97.5 68.5t69.5 99t37.5 116l101 563q4 10 12 10h174q12 0 8 -10l-178 -1016q-4 -10 -12 -10h-154q-8 0 -8 10l-6 92q0 10 -8 8.5 t-13 -6.5q-18 -20 -46.5 -41.5t-66.5 -40t-83 -30.5t-94 -12q-127 0 -206 37.5t-119 103t-47 153.5zM510 1221l126 213q6 8 13 8h229q10 0 12 -8l52 -213q2 -6 -3.5 -10.5t-11.5 -4.5h-118q-8 0 -15 8l-45 84q-8 18 -22 0l-74 -84q-4 -6 -9 -7t-10 -1h-118q-16 0 -6 15z" />
<glyph unicode="&#xfc;" horiz-adv-x="1185" d="M124 274q-7 88 9 189l100 563q4 10 13 10h174q12 0 8 -10l-100 -563q-10 -59 -6 -114.5t28.5 -98.5t72.5 -69.5t124 -26.5q63 0 118.5 25.5t97.5 68.5t69.5 99t37.5 116l101 563q4 10 12 10h174q12 0 8 -10l-178 -1016q-4 -10 -12 -10h-154q-8 0 -8 10l-6 92q0 10 -8 8.5 t-13 -6.5q-18 -20 -46.5 -41.5t-66.5 -40t-83 -30.5t-94 -12q-127 0 -206 37.5t-119 103t-47 153.5zM356 1219l39 213q0 10 13 10h215q8 0 8 -10l-39 -213q0 -10 -12 -11h-215q-8 0 -9 11zM856 1219l39 213q0 10 12 10h215q8 0 9 -10l-39 -213q0 -10 -13 -11h-215 q-8 0 -8 11z" />
<glyph unicode="&#xfd;" horiz-adv-x="1140" d="M-20 -395l24 153q4 10 12 11h232q92 0 130 52t23 134l-8 55l-168 1016q0 10 15 10h186q8 0 8 -10l123 -823q2 -8 9 -8t12 8l415 823q6 10 13 10h186q14 0 8 -10l-530 -1026l-90 -178q-35 -61 -67 -105.5t-68.5 -71t-84 -39t-108.5 -12.5h-264q-12 0 -8 11zM607 1221 l122 206l9.5 9.5t15.5 5.5h178q16 0 6 -15l-182 -206q-4 -4 -11 -9.5t-16 -5.5h-116q-16 0 -6 15z" />
<glyph unicode="&#xfe;" horiz-adv-x="1284" d="M12 -395l322 1827q4 10 12 10h174q12 0 8 -10l-82 -467q-2 -14 4.5 -13.5t16.5 6.5q18 12 46 29t63.5 32t80.5 26.5t99 11.5q113 0 198.5 -39t141 -110.5t75 -171t-1.5 -218.5q-23 -121 -74 -219t-129.5 -170t-180 -110.5t-220.5 -38.5q-31 0 -66.5 6t-69.5 18 t-65.5 31.5t-52.5 46.5q-4 4 -10 7t-10 -7l-84 -477q-4 -10 -12 -11h-175q-8 0 -8 11zM369 518q-29 -160 28.5 -262t198.5 -102q74 0 136.5 26.5t111.5 75.5t83 115.5t48 146.5t4 146.5t-42 115.5t-85 76t-127 27q-70 0 -129 -27t-105.5 -76t-77 -115.5t-44.5 -146.5z" />
<glyph unicode="&#xff;" horiz-adv-x="1140" d="M-20 -395l24 153q4 10 12 11h232q92 0 130 52t23 134l-8 55l-168 1016q0 10 15 10h186q8 0 8 -10l123 -823q2 -8 9 -8t12 8l415 823q6 10 13 10h186q14 0 8 -10l-530 -1026l-90 -178q-35 -61 -67 -105.5t-68.5 -71t-84 -39t-108.5 -12.5h-264q-12 0 -8 11zM364 1219 l39 213q0 10 13 10h215q8 0 8 -10l-39 -213q0 -10 -12 -11h-215q-8 0 -9 11zM864 1219l39 213q0 10 12 10h215q8 0 9 -10l-39 -213q0 -10 -13 -11h-215q-8 0 -8 11z" />
<glyph unicode="&#x152;" horiz-adv-x="2301" d="M118.5 421q-16.5 136 12.5 300q29 162 93.5 298t162.5 234.5t228 153.5t292 55q143 0 245.5 -44t168.5 -122l25 136q0 10 12 10h964q8 0 9 -10l-29 -154q0 -10 -10 -10h-770q-12 0 -13 -11l-75 -428q-4 -10 8 -10h686q12 0 8 -10l-27 -154q-4 -10 -12 -10h-686 q-8 0 -12 -10l-80 -451q0 -10 8 -10h770q10 0 10 -10l-28 -154q0 -10 -13 -10h-964q-8 0 -8 10l24 135q-92 -80 -209.5 -122.5t-261.5 -42.5q-162 0 -273.5 54t-175 152.5t-80 234.5zM336 721q-47 -266 40 -416.5t302 -150.5t355.5 150.5t187.5 416.5q45 266 -42 416.5 t-302 150.5q-217 0 -355.5 -149.5t-185.5 -417.5z" />
<glyph unicode="&#x153;" horiz-adv-x="2011" d="M107.5 299q-17.5 98 5.5 219q20 121 71.5 220.5t129 170t179 109.5t222.5 39q127 0 217 -45t143 -123q6 -12 23 0q78 78 182 123t231 45q119 0 206 -39t138.5 -110.5t66.5 -171t-5 -218.5q-6 -33 -16 -59q-6 -10 -13 -10h-764q-12 0 -12 -11q-10 -55 0 -107t41 -91 t81 -62.5t118 -23.5q109 0 171 41t105 102q4 10 17 10h192q10 0 8 -10q-68 -152 -209 -234.5t-315 -82.5q-125 0 -214 44t-140 126q-6 14 -21 0q-78 -82 -185.5 -126t-236.5 -44q-121 0 -208 38.5t-139 110.5t-69.5 170zM302 371.5q9 -66.5 41 -115.5t85 -75.5t127 -26.5 t136.5 26.5t111.5 75.5t83 115.5t48 146.5t4 146.5t-42 115.5t-85 76t-127 27t-136.5 -27t-111.5 -76t-81.5 -115.5t-47.5 -146.5q-14 -80 -5 -146.5zM1143 612q-2 -4 1 -7t7 -3h557q8 0 12 10q8 43 0 91.5t-35.5 88t-78 65.5t-125.5 26q-74 0 -134.5 -29t-103.5 -71 t-68.5 -88t-31.5 -83z" />
<glyph unicode="&#x178;" horiz-adv-x="1390" d="M274 1432q-6 10 9 10h206q8 0 15 -10l246 -584q10 -14 20 0l457 584q8 10 22 10h203q10 0 4 -10l-627 -791q-10 -12 -10 -20l-108 -611q0 -10 -13 -10h-174q-8 0 -8 10l109 611q0 4 -7 20zM518 1620l39 213q0 10 13 10h215q8 0 8 -10l-39 -213q0 -10 -12 -11h-215 q-8 0 -9 11zM1018 1620l39 213q0 10 12 10h215q8 0 9 -10l-39 -213q0 -10 -13 -11h-215q-8 0 -8 11z" />
<glyph unicode="&#x2c6;" horiz-adv-x="671" d="M193 1221l126 213q6 8 13 8h229q10 0 12 -8l52 -213q2 -6 -3.5 -10.5t-11.5 -4.5h-118q-8 0 -15 8l-45 84q-8 18 -22 0l-74 -84q-4 -6 -9 -7t-10 -1h-118q-16 0 -6 15z" />
<glyph unicode="&#x2dc;" horiz-adv-x="935" d="M184 1219l9 47q6 27 21 57.5t44 57t72 44t104 17.5q45 0 76 -14.5t53.5 -33t38.5 -32.5t33 -14q6 0 17.5 1t23.5 8t23.5 24.5t17.5 50.5q0 10 12 10h123q8 0 8 -10l-10 -50q-4 -27 -19.5 -57.5t-45 -56t-72.5 -43t-103 -17.5q-41 0 -70.5 14.5t-53 33t-41 33t-35.5 14.5 q-6 0 -17.5 -1.5t-24 -8.5t-23.5 -24.5t-17 -49.5q0 -10 -13 -11h-122q-8 0 -9 11z" />
<glyph unicode="&#x2000;" horiz-adv-x="933" />
<glyph unicode="&#x2001;" horiz-adv-x="1866" />
<glyph unicode="&#x2002;" horiz-adv-x="933" />
<glyph unicode="&#x2003;" horiz-adv-x="1866" />
<glyph unicode="&#x2004;" horiz-adv-x="622" />
<glyph unicode="&#x2005;" horiz-adv-x="466" />
<glyph unicode="&#x2006;" horiz-adv-x="311" />
<glyph unicode="&#x2007;" horiz-adv-x="311" />
<glyph unicode="&#x2008;" horiz-adv-x="233" />
<glyph unicode="&#x2009;" horiz-adv-x="373" />
<glyph unicode="&#x200a;" horiz-adv-x="103" />
<glyph unicode="&#x2010;" horiz-adv-x="1204" d="M276 436l29 164q0 10 12 10h641q8 0 9 -10l-29 -164q-4 -10 -12 -10h-641q-12 0 -9 10z" />
<glyph unicode="&#x2011;" horiz-adv-x="1204" d="M276 436l29 164q0 10 12 10h641q8 0 9 -10l-29 -164q-4 -10 -12 -10h-641q-12 0 -9 10z" />
<glyph unicode="&#x2012;" horiz-adv-x="1204" d="M276 436l29 164q0 10 12 10h641q8 0 9 -10l-29 -164q-4 -10 -12 -10h-641q-12 0 -9 10z" />
<glyph unicode="&#x2013;" horiz-adv-x="1474" d="M276 442l29 154q0 10 10 10h912q10 0 10 -10l-29 -154q0 -10 -12 -10h-911q-8 0 -9 10z" />
<glyph unicode="&#x2014;" horiz-adv-x="2039" d="M276 442l29 154q0 10 10 10h1477q10 0 10 -10l-28 -154q0 -10 -13 -10h-1476q-8 0 -9 10z" />
<glyph unicode="&#x2018;" horiz-adv-x="432" d="M100 893l52 285q20 117 104 190.5t199 73.5q8 0 8 -10l-21 -113q0 -10 -12 -10q-31 0 -69.5 -28t-49.5 -81q-4 -10 8 -10h91q12 0 8 -10l-51 -287q0 -10 -11 -10h-245q-10 0 -11 10z" />
<glyph unicode="&#x2019;" horiz-adv-x="432" d="M100 893l21 113q4 10 12 10q31 0 70 27.5t49 80.5q4 10 -8 11h-90q-8 0 -9 10l52 287q0 10 12 10h246q8 0 8 -10l-51 -285q-20 -117 -103.5 -190.5t-197.5 -73.5q-10 0 -11 10z" />
<glyph unicode="&#x201a;" horiz-adv-x="555" d="M63 -242l21 113q4 10 12 10q31 0 70 28t49 81q4 10 -8 10h-90q-8 0 -8 10l45 250q0 10 10 10h246q10 0 10 -10l-45 -248q-20 -117 -104.5 -190.5t-198.5 -73.5q-8 0 -9 10z" />
<glyph unicode="&#x201c;" horiz-adv-x="800" d="M100 893l52 285q20 117 104 190.5t199 73.5q8 0 8 -10l-21 -113q0 -10 -12 -10q-31 0 -69.5 -28t-49.5 -81q-4 -10 8 -10h91q12 0 8 -10l-51 -287q0 -10 -11 -10h-245q-10 0 -11 10zM469 893l51 285q20 117 104.5 190.5t198.5 73.5q8 0 8 -10l-20 -113q0 -10 -12 -10 q-31 0 -70 -28t-49 -81q-4 -10 8 -10h90q12 0 8 -10l-51 -287q0 -10 -10 -10h-246q-10 0 -10 10z" />
<glyph unicode="&#x201d;" horiz-adv-x="800" d="M100 893l21 113q4 10 12 10q31 0 70 27.5t49 80.5q4 10 -8 11h-90q-8 0 -9 10l52 287q0 10 12 10h246q8 0 8 -10l-51 -285q-20 -117 -103.5 -190.5t-197.5 -73.5q-10 0 -11 10zM469 893l20 113q4 10 13 10q31 0 69.5 27.5t49.5 80.5q4 10 -9 11h-90q-8 0 -8 10l51 287 q0 10 13 10h245q8 0 8 -10l-51 -285q-20 -117 -103 -190.5t-198 -73.5q-10 0 -10 10z" />
<glyph unicode="&#x201e;" horiz-adv-x="909" d="M0 -242l20 113q0 10 13 10q92 0 132 35t46 74q0 10 -8 10h-150q-12 0 -8 10l55 312q0 10 11 10h305q10 0 10 -10l-55 -310q-10 -51 -35 -98t-69 -84t-107.5 -59.5t-151.5 -22.5q-8 0 -8 10zM418 -242l20 113q0 10 13 10q92 0 132 35t46 74q0 10 -8 10h-150q-12 0 -8 10 l55 312q0 10 10 10h306q10 0 10 -10l-56 -310q-10 -51 -34.5 -98t-68.5 -84t-107.5 -59.5t-151.5 -22.5q-12 0 -8 10z" />
<glyph unicode="&#x2022;" horiz-adv-x="1619" d="M291 518q20 113 79.5 211t144.5 171t190.5 115t218.5 42t204 -42t150 -115t85 -171t5 -211q-20 -113 -79.5 -211t-145.5 -171t-191.5 -114.5t-218.5 -41.5t-203 41.5t-150.5 114.5t-84.5 171t-4 211z" />
<glyph unicode="&#x2026;" horiz-adv-x="1392" d="M98 10l43 250q4 10 13 10h245q12 0 9 -10l-43 -250q-4 -10 -13 -10h-246q-12 0 -8 10zM518 10l43 250q4 10 12 10h246q12 0 8 -10l-43 -250q-4 -10 -12 -10h-246q-12 0 -8 10zM936 10l43 250q4 10 12 10h246q12 0 8 -10l-43 -250q-4 -10 -12 -10h-246q-12 0 -8 10z" />
<glyph unicode="&#x202f;" horiz-adv-x="373" />
<glyph unicode="&#x2039;" horiz-adv-x="841" d="M168 510q-4 10 4 18l522 504q2 6 13 6h151q6 0 8 -5t-2 -9l-520 -496q-8 -8 -4 -18l346 -496q4 -14 -12 -14h-152q-8 0 -8 6z" />
<glyph unicode="&#x203a;" horiz-adv-x="841" d="M76 14l522 496q8 8 4 18l-348 496q0 14 14 14h152q4 0 8 -6l346 -504q4 -6 3 -9t-7 -9l-522 -504q-6 -6 -12 -6h-152q-12 0 -8 14z" />
<glyph unicode="&#x205f;" horiz-adv-x="466" />
<glyph unicode="&#x20ac;" horiz-adv-x="1433" d="M84 481l68 154q6 10 14 10h84q8 0 12 10q0 8 3 30t7 46.5t8.5 46t8.5 31.5t-8 10h-131q-12 0 -7 10l68 154q6 10 16 10h113q12 0 12 8q43 104 103.5 189.5t139.5 146t177 93t217 32.5q129 0 210 -34.5t144 -106.5q8 -12 0 -29l-81 -164q-4 -6 -9.5 -6t-7.5 6 q-29 70 -100.5 115t-186.5 45q-141 0 -237 -66.5t-162 -217.5q-6 -10 8 -11h615q12 0 6 -10l-70 -154q-6 -10 -14 -10h-598q-8 0 -12 -10q-12 -39 -19.5 -77t-7.5 -77q-4 -10 8 -10h541q12 0 6 -10l-70 -154q-6 -10 -14 -10h-467q-12 0 -12 -14q8 -147 80.5 -225t220.5 -78 q63 0 123.5 25.5t115 65.5t99.5 89t78 98q6 8 14 6t6 -12l-41 -233q-2 -6 -4 -12.5t-10 -16.5q-33 -39 -80 -73t-101.5 -58.5t-114 -38.5t-116.5 -14q-121 0 -209 33.5t-145.5 96t-87 150.5t-33.5 197q0 14 -10 14h-156q-10 0 -4 10z" />
<glyph unicode="&#x2122;" horiz-adv-x="954" d="M184 1378l9 54q4 10 10 10h291q12 0 8 -10l-8 -54q-4 -10 -13 -10h-98q-8 0 -12 -10l-56 -311q0 -10 -12 -11h-53q-8 0 -8 11l55 311q4 10 -8 10h-96q-12 0 -9 10zM463 1047l67 385q4 10 13 10h114q10 0 11 -10l24 -322q0 -4 3 -4t7 4l136 322q6 10 14 10h115q12 0 8 -10 l-68 -385q0 -10 -12 -11h-53q-8 0 -8 11l55 315q2 4 -2 5t-8 -5l-138 -315q-4 -10 -14 -11h-88q-6 0 -10 11l-27 315q0 6 -4 5t-6 -5l-55 -315q0 -10 -13 -11h-53q-8 0 -8 11z" />
<glyph unicode="&#x25fc;" horiz-adv-x="1034" d="M0 0v1034h1034v-1034h-1034z" />
<glyph unicode="&#xfb03;" horiz-adv-x="1937" d="M121 893l24 133q0 10 13 10h182q8 0 12 11l27 153q43 248 332 242h137q8 0 8 -10l-29 -154q0 -10 -10 -10h-135q-47 0 -77 -28t-38 -75l-20 -118q-4 -10 8 -11h221q8 0 8 -10l-24 -133q0 -10 -12 -10h-222q-10 0 -10 -11l-154 -862q0 -10 -12 -10h-174q-8 0 -8 10 l154 862q0 10 -11 11h-182q-8 0 -8 10zM817 893l24 133q0 10 13 10h182q8 0 12 11l27 153q43 248 332 242h137q8 0 8 -10l-29 -154q0 -10 -10 -10h-135q-47 0 -77 -28t-38 -75l-20 -118q-4 -10 8 -11h221q8 0 8 -10l-24 -133q0 -10 -12 -10h-222q-10 0 -10 -11l-154 -862 q0 -10 -12 -10h-174q-8 0 -8 10l154 862q0 10 -11 11h-182q-8 0 -8 10zM1479 10l180 1016q0 10 13 10h174q8 0 8 -10l-180 -1016q0 -10 -13 -10h-174q-8 0 -8 10zM1672 1217l38 215q0 10 13 10h215q8 0 8 -10l-39 -215q0 -10 -12 -11h-215q-8 0 -8 11z" />
<glyph unicode="&#xfb04;" horiz-adv-x="1925" d="M121 893l24 133q0 10 13 10h182q8 0 12 11l27 153q43 248 332 242h137q8 0 8 -10l-29 -154q0 -10 -10 -10h-135q-47 0 -77 -28t-38 -75l-20 -118q-4 -10 8 -11h221q8 0 8 -10l-24 -133q0 -10 -12 -10h-222q-10 0 -10 -11l-154 -862q0 -10 -12 -10h-174q-8 0 -8 10 l154 862q0 10 -11 11h-182q-8 0 -8 10zM817 893l24 133q0 10 13 10h182q8 0 12 11l27 153q43 248 332 242h137q8 0 8 -10l-29 -154q0 -10 -10 -10h-135q-47 0 -77 -28t-38 -75l-20 -118q-4 -10 8 -11h221q8 0 8 -10l-24 -133q0 -10 -12 -10h-222q-10 0 -10 -11l-154 -862 q0 -10 -12 -10h-174q-8 0 -8 10l154 862q0 10 -11 11h-182q-8 0 -8 10zM1469 10l252 1422q0 10 12 10h174q8 0 8 -10l-252 -1422q0 -10 -12 -10h-174q-8 0 -8 10z" />
</font>
</defs>
</svg>
